<svg xmlns="http://www.w3.org/2000/svg" width="96" height="96" fill="none"><path fill="#002A53" d="M75.859 20.144H0v75.86h75.859v-75.86Z"/><path fill="#fff" d="M24.404 63.992c-.16-.42-.241-1.071-.241-1.95v-3.459c0-1.758.055-3.025.166-3.79l-.056-.055-4.48.481-.036.092c.583.358.873 1.449.873 3.272v3.459c0 .954-.066 1.621-.196 2-.13.377-.355.621-.677.732v.094h5.503v-.094c-.41-.098-.693-.358-.853-.782M40.282 61.612v-3.029c0-1.758.056-3.021.166-3.79l-.055-.055-4.48.481-.037.092c.583.361.873 1.449.873 3.272v6.451l.075.056 4.552-.892v-.095c-.732-.335-1.097-1.166-1.097-2.491M53.184 64.038c-.13-.378-.195-1.045-.195-2v-4.164c0-.948-.212-1.68-.629-2.199a1.19 1.19 0 0 0-.13-.156c-.52-.527-1.263-.791-2.23-.791-.57 0-1.078.228-1.492.54-.186.12-.355.29-.502.47-.039.045-.08.094-.117.14-.218.26-.38.546-.475.817l.036.055a.962.962 0 0 1 .622-.244c.71 0 1.15.348 1.322 1.107.042.254.058.54.058.856v3.57c0 1.634-.302 2.546-.911 2.732v.094h5.317v-.094c-.322-.111-.547-.355-.677-.733M46.443 62.042v-3.459c0-1.758.056-3.021.166-3.79l-.055-.055-4.48.481-.037.092c.583.358.873 1.449.873 3.272v3.459c0 .954-.065 1.621-.195 2-.13.377-.358.621-.678.732v.094h5.315v-.094c-.606-.186-.912-1.098-.912-2.732M68.809 64.038c-.13-.378-.196-1.045-.196-2v-8.196c0-1.758.056-3.022.166-3.79l-.055-.056-4.48.482-.037.091c.583.359.873 1.45.873 3.27v8.196c0 .954-.065 1.622-.195 2-.13.377-.355.622-.678.733v.094h5.279v-.094c-.322-.111-.547-.356-.677-.733M60.596 57.597c0 .446-.033.81-.091 1.097l-1.648.195.007.196h4.523l.055-.726c0-1.078-.365-1.95-1.097-2.622-.652-.596-1.492-.925-2.524-.99v.137c.518.25.775 1.358.775 2.71"/><path fill="#fff" d="M61.319 62.524c-.928 0-1.707-.3-2.332-.902-.625-.603-.986-1.446-1.087-2.537 0 0-.02-.209-.02-.39v-.15c0-1.03.153-2.27.456-2.902.17-.352.358-.603.563-.759v-.127a4.657 4.657 0 0 0-2.98 1.397c-.934.948-1.403 2.214-1.403 3.8 0 1.586.476 2.755 1.433 3.69.954.935 2.113 1.404 3.475 1.404.644 0 1.234-.102 1.765-.307.534-.205.957-.475 1.273-.807.316-.336.563-.671.742-1.013.18-.342.3-.677.362-1.013l-.075-.036c-.534.434-1.257.652-2.175.652M6.373 51.39c.596.199.892 1.11.892 2.732v7.92c0 1.621-.296 2.533-.892 2.732v.094h4.702v-13.57H6.373v.092ZM17.617 58.815c-.967-.6-2.452-.925-4.461-.977v-.04c1.537-.084 2.703-.41 3.504-.976.798-.564 1.198-1.329 1.198-2.296 0-.967-.501-1.716-1.504-2.325-.97-.586-2.387-.89-4.25-.909v.144c.502.065.915.309 1.238.732.078.105.15.222.211.349.114.228.199.495.258.794.062.332.094.704.088 1.12-.007 1.046-.167 1.84-.476 2.394-.033.059-.068.114-.104.17l-.04.055c-.025.036-.055.071-.08.107-.03.036-.063.069-.092.101-.016.016-.03.033-.045.046-.16.153-.342.267-.547.342-.124.045-.261.078-.404.097v.15c.853.04 1.546.29 2.084.752.59.508.882 1.492.882 2.605 0 2.13-.99 3.446-2.97 3.45v.159c2.365 0 4.117-.297 5.256-.883 1.14-.59 1.71-1.495 1.71-2.722 0-1.03-.482-1.843-1.45-2.446M35.769 63.032a.962.962 0 0 1-.622.244c-.938-.003-1.404-.603-1.404-1.96v-2.733c0-1.758.056-3.025.17-3.79l-.056-.055-4.48.485-.036.091c.582.358.872 1.45.872 3.273v3.328c0 1.042.26 1.823.782 2.35.52.528 1.263.792 2.23.792.57 0 1.078-.228 1.492-.54.186-.12.355-.29.502-.47.038-.045.08-.09.117-.14a2.68 2.68 0 0 0 .475-.817l-.036-.055-.006-.003ZM28.452 55.024a1.424 1.424 0 0 0-.508-.218 2.272 2.272 0 0 0-.593-.072c-.254 0-.498.052-.733.153-1.026.378-1.501 1.603-1.706 3.56l.045.068c.127-.12.245-.238.362-.345.16-.14.697-.638 1.563-.453.049.01.094.023.14.036.026.007.052.013.078.023.244.078.456.182.606.303h.104l.645-2.726.068-.277v-.006c-.02-.017-.045-.03-.068-.046M6.835 72.16v2.803c0 .964.26 1.697.775 2.182.512.482 1.264.73 2.231.73.726 0 1.316-.284 1.745-.84.427-.554.642-1.287.642-2.176v-2.367c0-.525.072-.932.218-1.212.14-.27.306-.423.495-.452l.04-.007v-.127h-1.886v.127l.039.007c.221.035.413.192.57.459.16.277.24.68.24 1.205v2.367c0 .824-.192 1.492-.576 1.987-.377.491-.892.739-1.534.739-.592 0-1.025-.205-1.292-.606-.27-.407-.407-1.084-.407-2.012v-2.804c0-.463.039-.798.114-.993.071-.19.179-.3.325-.342l.036-.01v-.124H6.37v.124l.035.01c.287.084.43.534.43 1.335M21.235 72.489l.059.058v.023c-.059.414-.091.983-.091 1.693v2.263c0 .41.035.694.1.844.066.146.18.24.346.286l.036.01v.124h-2.166v-.124l.036-.01c.172-.048.287-.14.345-.286.062-.15.095-.437.095-.847V74.26c0-.443-.036-.762-.108-.954-.068-.182-.179-.306-.326-.365l-.039-.016.03-.114 1.683-.329v.007ZM20.584 71.909c.212 0 .384-.056.518-.173a.561.561 0 0 0 .205-.45.597.597 0 0 0-.205-.462.765.765 0 0 0-.521-.175.78.78 0 0 0-.525.175.575.575 0 0 0-.208.463c0 .189.068.332.205.45a.791.791 0 0 0 .528.172M22.55 73.368l1.808 4.396.013.03h.495l.05-.157 1.438-3.944c.095-.263.215-.488.365-.67.143-.18.277-.287.397-.323l.036-.01v-.114h-1.65v.114l.035.01c.238.062.41.182.515.365.104.179.1.423-.007.723l-.97 2.68-1.114-2.895c-.117-.3-.134-.524-.055-.671.055-.1.153-.166.302-.202l.036-.01v-.117h-2.328v.12l.042.007c.225.03.427.254.6.668M30.396 74.576H28.23c.013-.531.137-.974.371-1.316.238-.345.531-.52.873-.52.32 0 .554.12.71.364.156.247.238.596.238 1.035 0 .19-.01.336-.03.437m1.13 1.918.017-.049-.118-.03-.02.02c-.318.323-.742.489-1.26.489-.517 0-1-.192-1.35-.57-.346-.371-.535-.886-.56-1.537h3.197l.01-.036c.02-.081.029-.205.029-.378 0-.54-.18-.996-.534-1.358-.355-.361-.847-.544-1.456-.544-.7 0-1.29.251-1.752.75-.462.498-.693 1.152-.693 1.947 0 .794.238 1.423.703 1.921.466.502 1.068.756 1.781.756.518 0 .955-.134 1.297-.398.341-.26.582-.592.713-.98M37.944 77.62c-.355 0-.674-.123-.95-.364-.278-.244-.483-.625-.61-1.133l-.006-.026-.108-.036-.208 1.325.026.017c.192.123.462.234.807.328.342.095.671.14.97.14.603 0 1.082-.136 1.427-.41.349-.277.525-.648.525-1.104 0-.313-.098-.59-.287-.824a2.14 2.14 0 0 0-.687-.553c-.264-.137-.528-.267-.788-.398a2.443 2.443 0 0 1-.655-.465.862.862 0 0 1-.26-.622c0-.222.075-.398.234-.54.157-.144.365-.216.616-.216.267 0 .514.117.732.352.222.238.388.628.495 1.166l.007.026.104.036.3-1.28-.023-.02a2.185 2.185 0 0 0-.697-.371c-.29-.1-.6-.153-.918-.153-.531 0-.968.15-1.293.446-.329.3-.495.671-.495 1.11 0 .313.091.59.277.821.179.231.404.417.66.554.252.133.509.264.766.394.248.124.462.273.635.446.17.17.25.358.25.58 0 .237-.074.426-.22.563-.15.14-.359.208-.63.208M41.5 71.909c.212 0 .384-.056.518-.173a.56.56 0 0 0 .205-.45.596.596 0 0 0-.205-.462.762.762 0 0 0-.518-.175.785.785 0 0 0-.524.175.578.578 0 0 0-.212.463c0 .189.069.332.205.45a.791.791 0 0 0 .528.172M42.148 72.489l.059.058v.023c-.062.414-.091.983-.091 1.693v2.263c0 .41.035.694.1.844.066.146.18.24.346.286l.036.01v.124h-2.166v-.124l.036-.01c.172-.048.286-.14.345-.286.062-.15.094-.437.094-.847V74.26c0-.443-.035-.762-.107-.954-.068-.182-.18-.306-.326-.365l-.039-.016.03-.114 1.683-.329v.007ZM44.568 71.603l.104.026v.947h1.449v.232h-1.45v3.207c0 .801.275 1.189.831 1.189.371 0 .619-.13.76-.4l.019-.037.107.036-.01.043c-.052.267-.202.508-.44.713-.24.205-.543.31-.901.31-.495 0-.88-.15-1.14-.447-.257-.293-.388-.73-.388-1.293v-3.325h-.348v-.166l1.404-1.035h.003ZM50.022 72.573v.114l.036.01c.241.062.407.182.511.365.101.179.101.423-.003.722l-.922 2.667-1.113-2.881c-.11-.3-.127-.525-.049-.671.055-.101.153-.166.303-.202l.036-.01v-.114h-2.329v.117l.043.007c.218.03.416.254.589.667l1.817 4.397.013.029h.225c-.316.866-.824 1.306-1.518 1.306-.404 0-.706-.082-.895-.241l-.02-.017-.09.023-.265 1.11.023.02c.16.147.423.215.804.215.482 0 .902-.179 1.248-.537.342-.352.677-.993.993-1.912l1.41-4.067a2.18 2.18 0 0 1 .368-.668c.15-.175.286-.286.413-.328l.033-.01v-.11h-1.66ZM35.853 72.661a.941.941 0 0 0-.56-.163c-.374 0-.7.166-.973.492a1.907 1.907 0 0 0-.166.234s-.033.05-.085.153a.65.65 0 0 1-.02.046 1.174 1.174 0 0 0-.065.156 3.844 3.844 0 0 0-.218.893v-.209c0-.71.03-1.28.085-1.693v-.023l-.056-.058-1.683.328-.03.114.04.017c.146.058.257.179.325.364.072.192.108.512.108.954v2.264c0 .41-.033.693-.095.846-.058.147-.172.238-.345.287l-.036.01v.123h2.27v-.123l-.036-.01c-.205-.049-.345-.147-.426-.303-.085-.16-.124-.44-.124-.827v-1.277s.01-.823.267-1.25c.078-.127.16-.238.267-.313.172-.123.404-.185.625-.185.27 0 .476.055.61.163l.012.01h.085l.25-.997-.026-.02v-.003ZM18.747 77.67c-.172-.056-.29-.15-.351-.294-.066-.146-.098-.43-.098-.84v-2.338c0-.518-.143-.934-.423-1.237-.28-.303-.681-.456-1.183-.456-.436 0-.807.133-1.107.394a1.894 1.894 0 0 0-.322.348s-.049.056-.107.163a1.677 1.677 0 0 0-.15.332c-.004.01-.007.023-.013.033 0 .003 0 .01-.004.013l-.006.023c-.03.097-.056.201-.072.319.004-.645.033-1.166.085-1.55v-.023l-.055-.059-1.684.33-.03.113.04.016c.146.059.257.18.325.365.072.189.108.511.108.954v2.264c0 .41-.033.693-.095.846-.058.147-.172.238-.345.287l-.036.01v.123h2.185v-.123l-.035-.01a.53.53 0 0 1-.355-.306c-.075-.163-.111-.443-.111-.828v-1.966a1.75 1.75 0 0 1 .17-.7l.016-.033c.097-.186.237-.336.417-.45a1.07 1.07 0 0 1 .582-.172c.671 0 .997.417.997 1.276v2.049c0 .384-.036.664-.108.827a.512.512 0 0 1-.351.306l-.036.01v.123h2.185v-.123l-.033-.01v-.007ZM22.486 85.87c-.235.621-.54 1.11-.905 1.448-.362.339-.756.508-1.166.508h-1.238v-5.392c0-.463.04-.798.114-.994.072-.188.18-.3.326-.341l.036-.01v-.124h-2.24v.124l.035.01c.287.084.43.534.43 1.335v4.165c0 .456-.04.788-.114.983-.072.189-.18.306-.32.352l-.032.01v.12h4.944l.266-2.159v-.036l-.113-.058-.02.048-.003.01ZM24.677 83.655c.232-.43.534-.642.925-.642.39 0 .694.209.925.639.235.433.352 1.035.352 1.787 0 .795-.117 1.41-.346 1.834-.227.42-.534.622-.928.622s-.7-.205-.928-.622c-.23-.424-.345-1.04-.338-1.834-.007-.749.107-1.348.342-1.784m.921-.883c-.746 0-1.361.251-1.837.75-.472.498-.713 1.142-.713 1.917 0 .775.238 1.469.71 1.96.473.496 1.091.746 1.843.746.753 0 1.381-.25 1.853-.745.473-.495.71-1.153.71-1.96 0-.808-.24-1.424-.713-1.919-.475-.498-1.097-.749-1.846-.749M42.513 83.655c.231-.43.534-.642.925-.642.39 0 .693.209.925.639.234.433.351 1.035.351 1.787 0 .795-.117 1.41-.348 1.834-.228.42-.534.622-.928.622s-.7-.205-.928-.622c-.232-.424-.342-1.04-.339-1.834-.007-.749.107-1.348.342-1.784Zm.922-.883c-.746 0-1.362.251-1.837.75-.472.498-.713 1.142-.713 1.917 0 .775.237 1.469.71 1.96.472.496 1.09.746 1.843.746.752 0 1.38-.25 1.853-.745.472-.495.71-1.153.71-1.96 0-.808-.241-1.424-.714-1.919-.475-.498-1.097-.749-1.846-.749M34.323 87.937c-.173-.055-.29-.15-.352-.293-.065-.147-.097-.43-.097-.84v-2.338c0-.518-.144-.935-.424-1.238-.28-.303-.68-.456-1.182-.456-.436 0-.808.134-1.107.394a1.899 1.899 0 0 0-.323.349s-.048.055-.107.163a1.677 1.677 0 0 0-.163.368c0 .003 0 .006-.003.013l-.007.022c-.029.098-.055.202-.071.32.003-.645.032-1.166.085-1.55v-.023l-.056-.059-1.683.329-.03.114.04.016c.146.059.257.18.325.365.072.189.107.511.107.954v2.263c0 .41-.032.694-.094.847-.059.143-.173.238-.345.287l-.036.01v.123h2.185v-.124l-.036-.01a.53.53 0 0 1-.355-.305c-.075-.163-.11-.443-.11-.828v-1.967c.006-.146.035-.43.169-.7l.016-.032c.098-.186.238-.336.417-.45.18-.114.375-.169.583-.169.67 0 .996.417.996 1.276v2.049c0 .384-.035.664-.107.827a.512.512 0 0 1-.352.306l-.036.01v.124h2.185v-.124l-.032-.01v-.013ZM52.158 87.937c-.172-.055-.29-.15-.351-.293-.065-.147-.098-.43-.098-.84v-2.338c0-.518-.143-.935-.423-1.238-.28-.303-.68-.456-1.182-.456-.437 0-.808.134-1.11.394a1.899 1.899 0 0 0-.323.349s-.049.055-.108.163a1.677 1.677 0 0 0-.163.368c0 .003 0 .006-.003.013l-.006.022c-.03.098-.056.202-.072.32.003-.645.033-1.166.085-1.55v-.023l-.056-.059-1.683.329-.03.114.04.016c.146.059.257.18.325.365.072.189.108.511.108.954v2.263c0 .41-.033.694-.095.847-.058.143-.172.238-.345.287l-.036.01v.123h2.185v-.124l-.035-.01a.53.53 0 0 1-.355-.305c-.075-.163-.111-.443-.111-.828v-1.967c.006-.146.036-.43.17-.7l.016-.032c.097-.186.237-.336.416-.45.18-.114.375-.169.583-.169.671 0 .997.417.997 1.276v2.049c0 .384-.036.664-.108.827a.512.512 0 0 1-.352.306l-.035.01v.124h2.185v-.124l-.033-.01.003-.013ZM38.455 86.817c-.039.075-.081.14-.127.199-.003.006-.01.01-.013.016l-.016.02c-.075.087-.146.15-.199.191a1.022 1.022 0 0 1-.622.19 1.03 1.03 0 0 1-.924-.506c-.219-.341-.33-.866-.33-1.563 0-.797.121-1.4.356-1.78.234-.382.537-.568.931-.568.762 0 1.13.518 1.13 1.586v1.453a1.69 1.69 0 0 1-.182.762m1.856.84a.593.593 0 0 1-.358-.332c-.075-.166-.111-.446-.111-.83V82c0-.703.03-1.27.088-1.683v-.023l-.056-.058-1.68.328-.036.101.043.017a.604.604 0 0 1 .332.368c.068.185.104.508.104.95v1.12c-.32-.23-.7-.348-1.13-.348-.733 0-1.348.248-1.833.736-.482.489-.73 1.228-.73 2.205 0 .703.182 1.293.54 1.745.362.46.84.69 1.42.69.417 0 .776-.13 1.072-.384.147-.127.267-.263.365-.413a2.2 2.2 0 0 0 .29-.684v1.443l.071.045 1.641-.365v-.117l-.032-.013v-.003ZM7.995 83.665c.23-.43.534-.642.924-.642.391 0 .694.209.925.635.235.433.352 1.032.352 1.788 0 .791-.117 1.407-.349 1.83-.227.42-.53.622-.928.622-.397 0-.7-.202-.928-.622-.228-.423-.342-1.039-.335-1.83-.007-.75.107-1.348.342-1.781m.921-.88c-.742 0-1.36.251-1.833.75-.472.494-.713 1.14-.713 1.914 0 .775.238 1.466.707 1.957.468.492 1.087.743 1.836.743.75 0 1.378-.251 1.847-.743.469-.492.706-1.15.706-1.957 0-.808-.24-1.416-.713-1.915-.472-.495-1.094-.749-1.843-.749M15.289 80.389a2.536 2.536 0 0 0-.801-.134c-.6 0-1.078.156-1.417.46-.338.305-.51.787-.51 1.429v.716h-.35v.228h.35v3.716c0 .41-.034.693-.099.84-.062.143-.175.238-.351.293l-.033.01v.12h2.293v-.123l-.036-.007c-.212-.049-.358-.147-.443-.306-.088-.16-.13-.436-.13-.827v-3.716h1.293v-.228h-1.293v-.716c0-.61.065-1.042.192-1.29.124-.24.3-.361.53-.361.232 0 .44.114.6.345.163.238.286.638.368 1.185v.033l.117.03.368-1.336-.023-.02a1.738 1.738 0 0 0-.628-.341"/><path fill="#008ACF" d="M96 0H55.705v40.295H96V0Z"/><path fill="#fff" d="M74.459 23.163s-.095-.358-.241-.567h-3.726v.473c0 .332 0 .827.026 1.452.277-.208.564-.407.818-.56.049-.03.14-.013.175.068l.209.512c.254-.15.469-.264.736-.385l-.27-.44c-.069-.113.022-.204.087-.237a8.47 8.47 0 0 1 1.4-.485c.089-.023.206.042.216.127l.058.514c.326-.078.606-.123.87-.153l-.098-.462-.267.143h.007Z"/><path fill="#fff" d="M71.59 25.615c.068-.049.14-.098.221-.153l-.53-1.1c-.268.169-.486.351-.75.56.004.068.004.127.007.198l.752.723c.101-.081.202-.16.296-.228h.004ZM73.765 24.576l-.163-1.244a8.619 8.619 0 0 0-1.068.372l.668 1.074c.175-.068.361-.136.563-.202ZM73.983 23.925l.072.57c.355-.095.596-.14.954-.18l-.117-.55c-.277.03-.57.075-.909.16ZM70.59 25.599c.02.24.042.615.068.856.163-.166.254-.26.427-.403 0 0-.45-.417-.492-.453h-.003ZM75.045 22.919l.137.674v.016l.143.674a6.576 6.576 0 0 1 1 0l.345-1.621c-.476-.023-1.137.048-1.629.257h.004ZM72.081 25.342a7.15 7.15 0 0 1 .84-.443l-.306-.502a6.759 6.759 0 0 0-.775.407l.241.538ZM72.97 24.876l-.048.023.048-.023ZM81.173 22.596s-4.139 0-4.148-.01l-.183.9c.264.026.544.071.87.152l.058-.514c.01-.085.127-.15.215-.127.479.12.951.287 1.4.485.069.03.16.124.088.238l-.27.44c.267.12.486.234.736.384l.209-.511c.035-.082.127-.098.175-.069.255.153.544.352.818.56.026-.566.026-1.029.026-1.36v-.568h.006Z"/><path fill="#fff" d="M81.134 24.922c-.263-.209-.482-.391-.749-.56l-.53 1.1a7.34 7.34 0 0 1 .518.381l.752-.723.006-.198h.003ZM78.064 23.332l-.163 1.244c.202.066.387.13.563.202l.668-1.074a8.624 8.624 0 0 0-1.069-.372ZM76.66 24.313c.358.039.6.084.954.179l.072-.57a5.952 5.952 0 0 0-.909-.16l-.117.55ZM80.584 26.052c.17.143.26.237.427.403.022-.24.052-.622.071-.863-.071.069-.498.46-.498.46ZM79.825 24.801a7.008 7.008 0 0 0-.775-.407l-.306.502c.287.127.57.276.84.442l.241-.537ZM78.744 24.899s-.032-.017-.049-.023l.05.023ZM72.329 7.87c.085-.025.394-.107.576-.146.069-.016.111-.062.111-.15a.389.389 0 0 0-.16-.322c-.061-.049-.058-.094-.032-.14.032-.059.1-.052.156-.036.056.017.114-.013.108-.123 0-.082.052-.147.15-.147.094 0 .136.059.244.059-.036.026-.036.084-.062.143-.03.065-.065.1-.137.107-.062.007-.094.04-.091.092 0 .022.01.045.026.071.075.124.094.303.023.417a.8.8 0 0 0 .09.006c.401 0 .613-.315.782-.56.144-.208.352-.394.632-.394.479 0 .677.388.671.85 0 .147-.036.41-.133.573.169-.032.26-.013.345.026a.47.47 0 0 1 .162.7c.066-.051.28-.214.544-.048.365-.762.603-1.205.88-1.514.127-.14.302-.323.452-.47.785-.771.645-1.637.508-1.69-.133.502-.557.811-.733.828.245-.313.258-.922.238-1.202-.02-.293-.088-.593-.361-.658.088.463-.033 1.03-.345 1.221.071-.556-.059-1.058-.33-1.315-.175-.166-.325-.196-.484-.186.28.277.433.958.169 1.755-.117.352-.16.437-.284.596.356.463.48 1.094.287 1.74-.068.224-.172.475-.287.582.095-.296.088-.599.088-.713 0-.98-.504-1.592-1.384-1.592-.657 0-.843.315-1.325.325-.42.01-.56.16-.651.381-.176-.032-.248.18-.127.284-.03.081-.241.328-.573.462-.16.065-.13.231-.053.313.095-.059.228-.101.316-.127l-.006.003Z"/><path fill="#fff" d="M74.218 9.046a.12.12 0 0 0-.101.13c.01.063.068.108.13.102.16-.023.342.039.69.228.463.25.55.403.567.446a.116.116 0 0 0 .107.075c.013 0 .026 0 .043-.007a.117.117 0 0 0 .068-.15.534.534 0 0 0-.072-.12c.105-.11.258-.212.375-.306a.2.2 0 0 0 .146-.375.201.201 0 0 0-.263.26c-.14.098-.31.14-.45.043-.175-.124-.14-.339-.045-.55a.2.2 0 0 0 .097-.378.203.203 0 0 0-.273.081.207.207 0 0 0 .01.209c-.127.195-.287.345-.486.264-.16-.066-.215-.228-.211-.401a.217.217 0 0 0 .127-.081.203.203 0 0 0-.052-.28.203.203 0 0 0-.28.052.204.204 0 0 0 .045.276c.01.15-.006.31-.062.486-.039 0-.078 0-.117.006l.007-.01ZM75.973 13.625c-.013-.199-.707-.528-1.107-.746.055.056.078.205 0 .27-.066.056-.196.06-.3.036.117.199.417.17.502.144-.144.166-.401.3-.492.28-.163-.036-.4-.443-.7-.456-.108-.004-.157.02-.232.045-.283-.374-.862-.283-.95.114.169-.185.478-.117.586.05-.404.11-.564.488-.41.732.035-.212.338-.362.53-.4-.071.25.12.54.388.54-.163-.283-.085-.74.247-.638.137.042.26.254.394.37.056.05.088.046.144.053.192.02 1.097-.54 1.397-.394h.003Z"/><path fill="#fff" d="M76.833 8.799c-.232.495-.349.781-.622 1.084-.254.284-.534.521-1.134.587-.175.019-.42.022-.508.293-.12-.368.222-.547.557-.567.062-.003.088-.01.078-.068 0-.193-.983-.714-1.165-.541-.316.215-.587.651-.587 1.156 0 .782.577 1.329 1.293 1.713 1.518.67 2.016.775 1.853 1.592.098.007.209-.065.29-.15.023.134.042.28.052.424.023.286-.013.361-.248.345-.328-.023-.41-.29-.641.04-.173.041-.296.14-.3.276.57-.137 1.339-.091 1.984.11.042-.097.12-.22-.17-.302-.143-.04-.23-.04-.276-.251-.03-.14-.033-.345-.04-.537.16.176.372.361.613.332a.97.97 0 0 1-.274-.668c0-.156.124-.081.15-.062.775.587 1.364.515 1.65.394.21-.088.248-.179.22-.351-.33.182-.922.11-1.027-.11.788-.014 1.078-.519.964-.75-.231.274-.693.375-.902.355-.39-.033-.606-.231-.697-.384.375.202.782.065.906-.127-.945-.153-1.04-.593-1.521-1.039-.788.133-1.462-.173-1.645-.46.684.115 1.14.173 1.928-.019.521-.127 1.566-.58 1.74-1.195-.346.114-.887.173-1.216-.02.75-.136 1.489-.413 1.85-.732.222-.195.27-.345.231-.56-.573.404-1.481.576-1.752.384.834-.231 1.847-.954 2.104-1.368a.709.709 0 0 0 .081-.644c-.283.508-1.354 1.042-1.664.85.984-.434 1.329-1.176 1.407-1.476.078-.29.026-.622-.137-.804-.146.544-.52 1.055-.736 1.049.264-.437.349-1.075.26-1.42-.07-.284-.322-.515-.494-.538.186.893-.186 1.573-.804 2.133-1.023.922-1.078.808-1.648 2.023l-.003.003ZM78.865 15.563c-.163-.046-.43-.06-.489.15a.335.335 0 0 0 .062.266c0-.16.14-.329.534-.15.267.124.368.232.427.41.1-.39-.212-.585-.534-.68v.004ZM72.909 30.38c-.144.26-.47.911-.525 1.178.192-.192.564-.824.704-1.084.032-.059.058-.056.117-.033.072-.114 1.921-3.403 2.494-4.425a.677.677 0 1 0-.443-.316c-.504.967-2.321 4.438-2.38 4.562.052.036.068.055.036.114l-.004.003Zm2.924-5.315a.29.29 0 0 1 0 .58.29.29 0 0 1 0-.58ZM76.181 26.351c.71 1.264 2.244 3.99 2.31 4.094.058-.023.084-.027.116.032.14.26.508.89.704 1.084-.056-.267-.385-.921-.525-1.178-.032-.059-.016-.078.036-.114-.052-.114-1.566-3.003-2.217-4.247a.651.651 0 0 1-.424.332v-.003ZM75.445 15.97c.134-.023.59-.098.626-.082a.814.814 0 0 1-.31-.277c-.156-.224-.472-.335-.8-.205-.216.085-.297.238-.186.424.146.244.348.195.67.136v.004ZM72.925 16.364c-.326.198-.267.52-.12.644.204.173.403.043.585-.123.13-.12.538-.407.606-.414a.634.634 0 0 1-.387-.091c-.277-.192-.453-.156-.68-.016h-.004ZM77.448 15.283c-.3-.007-.43.254-.31.472.098.179.34.175.57.218.232.042.356.059.603.153-.14-.18-.085-.248-.215-.515-.12-.247-.394-.322-.648-.329ZM73.654 15.869c-.09.11-.153.342.215.407-.283-.352.339-.498.69-.573-.153-.293-.807.045-.905.166ZM76.966 15.41c.055-.294-.593-.3-.86-.206-.201.072-.312.332-.01.473-.182-.417.61-.368.87-.268ZM75.836 33.392a.713.713 0 1 0 0-1.427.713.713 0 0 0 0 1.427Z"/><path fill="#fff" d="M87.64 19.22c0-1.524-.729-1.853-1.615-1.834-.79.016-1.107-.596-.771-1.175-.964.345-.945 1.309-.424 1.657-1.26.31-.687 1.934-1.765 2.022.346.28 1.11.287 1.534-.211-.342-.577-.049-1.14.33-1.31-.444.675.061 1.74.983 1.407-.18-.026-.401-.276-.401-.602 0-.508.374-.782.765-.765.427-.02.938.345.938 1.133 0 .218-.006.466-.16.742.102-.387-.104-1.211-.605-1.387.267 1.293-.68 1.954-2.208 1.954-1.527 0-2.638-1-3.185-2.019.222.095.417.124.648.124 1.14 0 1.74-.905 1.928-2.329.166-1.266.834-2.09 2.055-1.475-.192-1.039-1.72-1.367-2.442-.413-.261-.684-.603-.844-1.069-1.446-.72-.928-.361-1.88.313-1.88-.221.138-.384.463-.231.828.713-.04.772 1.501 2.002 1.394.6-.052 1.202-.531 1.251-1.153.04-.492-.173-1.036-.609-1.202.29.463.052.9-.518.938.026.173.238.57.629.671-.072.13-.284.14-.365.14-.824-.026-.886-2.019-2.26-1.957-.664.03-1.472.462-1.69 1.156-.254.81-.033 1.501.583 2.136 1.589-.058 2.26 1.95 1.442 3.423.45-1.804-.384-2.928-1.286-2.94-.749-.014-1.218.703-1.055 1.464.182-.27.339-.547.853-.501.463.04.82.462.82 1.156 0 .596-.295 1.01-.77 1.039-.476.03-.71-.199-.975-.576-.293-.42-.596-.945-1.354-1.072.355.195.628.625.632 1.016-.818-1.088-2.785-1.3-4.312-.99-.755.143-1.703.54-1.882 1.469.514 0 .837.026 1.787-.209-.029-.182.085-.257.694-.38.674-.137.762-.137.86.208.026.094.065.224.11.404.04.156.144.179.28.14.19-.056.57-.212.815-.427.215-.202-.124-.655-.827-.941.895.085 1.804.479 1.843 1.26.023.43-.267.824-.935.896-.006-.306.059-.671.098-.974.01-.081-.033-.124-.062-.059-.117.254-.521.525-.81.662-.21.097-.252.24-.222.403.052.287.136.661.276.811-.54.023-.635-1.081-.879-1.905-.097-.332-.176-.244-.592-.17-.34.063-.274.2-.192.56.12.538.179.743-.15.841-.606.18-1.619.18-2.563-.182.66.023 1.244.023 2.175-.206.345-.084.231-.11.176-.4-1.02.231-1.889.296-2.384.244-.02-.192.19-.68.245-.768-.17.1-.763.7-.938 1.162 1.185.437 2.634 1.098 2.774 2.456 1.133-1.446 2.462-1.638 3.136-1.547-1.592.198-2.778 1.67-3.569 2.716.41-1.046-.11-1.72-.378-1.912-.192.202-.41.733-.45 1.156.385.153.688.59.773.844.472-.228 1.003-.342 1.771-.342.453-.964 1.264-1.935 2.136-1.935.567 0 .85.704.587 1.71h-.173c.11-1.189-.912-1.189-1.38-.775.178.179.266.475.266.775h-.488c-.095 0-.209.29-.209.29h4.507v.387c.007 2.123.01 4.322-.706 6.517-.473 1.442-1.225 2.751-2.277 3.953l-2.693-5.292-2.693 5.292a11.229 11.229 0 0 1-2.276-3.954c-.72-2.194-.713-4.393-.707-6.516v-.387h3.915s-.079-.173-.219-.29H69.86v.674c-.003 1.892-.01 3.895.518 5.907-.755-1.136-2.162-1.387-3.012-2.1.694.29 1.52-.577 1.925.423.25-.752-.355-1.446-1.195-1.215.319-.403.087-1.292-.808-1.309.17.186.238.404.218.658-.02.28-.218.57-.547.57-.296 0-.567-.221-.567-.707 0-.644.492-1.38 1.635-1.888a1.15 1.15 0 0 0 1.319 1.175c-.462-.28-.544-.817-.537-1.185.02-1.088.706-1.768 2.064-2.1-.114-.521.144-1.069.466-1.186-.407 1.03.374 1.983 1.316 1.778-1.026-.39-.557-1.625.032-1.93-.192-.134-.576-.31-1.02-.434.079-.27.447-.85.698-1.12-.984.247-1.983-.257-1.983-1.335 0-.56.355-.974.869-.974.326 0 .664.16.85.492.13-.866-.316-1.427-1.094-1.427-.736 0-1.446.502-1.501 1.57-.02.387.068.964.325 1.378-.394-.241-.667-.942-.667-1.463 0-1.143.726-1.944 1.797-1.944.375-.215.736-.648.769-1.309.055-1.048-1.293-1.99-2.276-1.81-.447.081-.69.329-1.082.752-.583.635-1.08.511-1.302.286-.166-.169-.284-.485-.235-.895-.286.348-.508.837-.387 1.338.143.616.628.896 1.094.948-.192-.199-.215-.603-.046-.883.092.596.629.736 1.12.512.671-.31.779-.886 1.538-1.078.491-.124 1.459.462 1.003 1.501-.05-.56-.284-.886-.671-.964-.065.619-.489.804-.902 1.215-.225.221-.414.413-.56.781-.4-.658-2.198-.778-2.82.355 1.15-.404 2.13.007 2.357 1.462.231 1.472 1.332 2.231 2.459 2.156-.782 1.404-1.967 2.254-3.543 2.254s-2.556-.714-2.267-1.993c-.501.172-.723 1.003-.605 1.387-.108-.147-.166-.453-.166-.752 0-.795.605-1.313 1.156-1.29.384.003.726.209.781.596.059.414-.199.733-.413.762.983.358 1.524-.781 1.048-1.501.4.182.762.739.362 1.42.452.534 1.344.452 1.716.156-1.153-.091-.69-1.817-1.977-2.11.756-.43.684-1.387-.345-1.759.371.925-.15 1.326-.931 1.348-1.349.036-1.902 1.01-1.814 2.221.078 1.055.797 2.172 2.761 2.114-.27.404-1.501.54-1.944.192.078.31.518.69 1.462.674.7-.013 1.54-.31 2.114-.899-.219.651-.854 1.14-1.759 1.31-.443.29-.856.81-.866 1.738-.007.4.173.925.521 1.329-.856-.424-1.17-1.632-.723-2.485-.6.231-.853 1.127-.853 1.82 0 .756.15 1.355.615 2.195.723 1.3 1.01 3.006-.048 3.351.478.147 1.673-.189 1.677-1.771.788.31.843.807.745 1.25.417-.218.661-1.127.199-1.618-1.332-.639-2.169-1.371-2.338-2.563.26 1.039 1.86 1.833 2.165 1.983.795.368 1.902.902 2.407 1.648.322.472.404 1.24.088 1.703.058-.733-.287-1.54-.941-1.87.329.346.403.939.403 1.215 0 .437-.221.779-.595.779-.577 0-.704-.645-.385-1.068-.482.058-.827.469-.788 1.003.026.374.345.807.938.918-.928.482-1.055 1.993.127 2.573-.345-.645-.065-1.069.358-1.508-.31-.694.069-1.39.492-1.55-.202.31-.231.602-.231.817 0 .505.377 1.146 1.377 1.059.277-.023.616-.173.798-.466-.941.351-1.58-.424-1.1-1.742.159-.42.244-.785.237-1.18 0-.064-.006-.13-.01-.191.818 1.937 2.267 3.852 4.823 5.65l.085.058.085-.058c2.556-1.798 4.002-3.713 4.819-5.65a1.84 1.84 0 0 0-.01.189c-.006.394.078.758.238 1.178.475 1.32-.16 2.094-1.1 1.743.182.293.52.442.797.465 1 .085 1.378-.553 1.378-1.058 0-.215-.03-.511-.232-.817.424.16.798.856.492 1.55.424.436.707.862.358 1.507 1.186-.576 1.055-2.09.127-2.572.59-.111.912-.544.938-.919.036-.53-.31-.944-.788-1.003.32.424.192 1.069-.384 1.069-.375 0-.6-.346-.596-.779 0-.273.078-.866.404-1.214-.655.328-.997 1.136-.941 1.869-.32-.463-.235-1.231.088-1.703.504-.746 1.612-1.28 2.406-1.648.303-.15 1.905-.944 2.166-1.983-.17 1.192-1.007 1.924-2.338 2.563-.463.491-.219 1.4.198 1.618-.098-.443-.046-.944.746-1.25 0 1.585 1.198 1.918 1.677 1.771-1.058-.345-.772-2.052-.049-3.35.469-.844.615-1.44.615-2.196 0-.693-.254-1.589-.853-1.82.45.853.137 2.061-.723 2.485.346-.404.525-.928.522-1.329-.014-.928-.427-1.45-.867-1.739-.807-.12-1.514-.612-1.755-1.302.596.589 1.397.879 2.11.892.948.016 1.384-.365 1.462-.674-.179.14-.488.202-.814.198-.472-.006-.973-.15-1.133-.39 1.977.058 2.771-1.127 2.771-2.27l-.006-.003Zm-11.618-1.124a.196.196 0 0 1-.196-.195.196.196 0 0 1 .39 0 .196.196 0 0 1-.194.195Zm1.436 14.778-.482.13a1.23 1.23 0 0 1-.104.254l.25.433a1.844 1.844 0 0 1-.133.143 1.815 1.815 0 0 1-.143.13l-.434-.25a1.098 1.098 0 0 1-.254.104l-.13.485c-.065.007-.13.007-.195.007s-.13 0-.195-.01l-.13-.482a1.133 1.133 0 0 1-.251-.104l-.434.25a1.825 1.825 0 0 1-.143-.133 1.78 1.78 0 0 1-.13-.143l.25-.433a1.138 1.138 0 0 1-.104-.25l-.485-.131c-.006-.065-.006-.13-.006-.196 0-.065 0-.13.01-.195l.481-.13a1.14 1.14 0 0 1 .105-.251l-.251-.433c.042-.049.085-.098.133-.143.046-.046.095-.091.144-.13l.433.25c.078-.046.162-.078.25-.104l.13-.485c.066-.007.131-.007.196-.007s.13 0 .195.01l.13.485c.089.026.173.059.251.104l.434-.25c.048.042.097.084.143.133.045.046.091.095.13.143l-.25.433c.045.079.078.163.104.251l.485.13c.006.066.006.13.006.196 0 .065 0 .13-.01.195l.004-.006Zm6.161-9.903c1.208.514 1.638 1.283 1.644 1.889.007.485-.27.706-.566.706-.329 0-.528-.29-.547-.57a.855.855 0 0 1 .218-.657c-.895.016-1.123.905-.808 1.309-.837-.232-1.445.462-1.195 1.214.404-1.003 1.235-.133 1.925-.423-.85.713-2.257.964-3.01 2.1.528-2.009.525-4.015.519-5.904v-.673h-2.485c.143-.466.221-1.186 0-1.6-.195-.367-.423-.537-.856-.625-.082-.052-.17-.189-.228-.273-.183-.03-.675-.212-.753-.674.359.42 1.218.446 1.638.26.54-.24.76-.573.723-1.175.287.361.323 1.032-.068 1.374.57.55.957 1.592.264 2.084.68.088 1.25-.528 1.01-1.358.21.098.51.593.338 1.071 1.078.48 1.449 1.049 1.465 2.013.007.368-.14.84-.537 1.094.824.11 1.368-.583 1.309-1.175v-.007ZM72.694 7.959c0 .163-.186.316-.31.42.04.052.105.042.15.026.163-.055.469-.397.687-.505a1.59 1.59 0 0 0-.53.059h.003Z"/></svg>