<?xml version="1.0" standalone="no"?>
<!DOCTYPE svg PUBLIC "-//W3C//DTD SVG 20010904//EN"
 "http://www.w3.org/TR/2001/REC-SVG-20010904/DTD/svg10.dtd">
<svg version="1.0" xmlns="http://www.w3.org/2000/svg"
 width="500.000000pt" height="500.000000pt" viewBox="0 0 500.000000 500.000000"
 preserveAspectRatio="xMidYMid meet">
<metadata>
Created by potrace 1.11, written by Peter Selinger 2001-2013
</metadata>
<g transform="translate(0.000000,500.000000) scale(0.100000,-0.100000)"
fill="#000000" stroke="none">
<path d="M2138 4410 c-302 -37 -568 -262 -653 -553 l-16 -57 -290 0 -289 0 0
-1610 0 -1610 1610 0 1610 0 0 1610 0 1610 -556 2 -556 3 -22 70 c-114 357
-464 580 -838 535z m-673 -907 c35 -165 109 -307 213 -412 155 -156 338 -231
560 -231 261 0 496 125 642 340 52 77 107 205 116 273 4 27 12 51 18 53 6 2
152 3 324 2 l312 -3 -1245 -1245 -1245 -1245 0 1248 0 1247 150 0 150 0 5 -27z
m2375 -1413 l0 -1240 -1242 0 -1243 0 1240 1240 c682 682 1241 1240 1242 1240
2 0 3 -558 3 -1240z"/>
<path d="M1606 2585 c-56 -20 -105 -63 -139 -124 -63 -112 -28 -268 77 -338
61 -41 117 -57 182 -50 139 14 234 121 234 263 0 119 -63 210 -173 251 -44 16
-134 15 -181 -2z"/>
<path d="M3024 1970 c-118 -25 -230 -117 -286 -235 -30 -64 -33 -78 -32 -165
0 -114 22 -177 87 -260 147 -186 438 -200 607 -30 211 210 128 577 -152 676
-53 18 -170 26 -224 14z"/>
</g>
</svg>
