<svg width="64" height="64" fill="none" xmlns="http://www.w3.org/2000/svg"><path d="M32.281 63.997C12.815 54.776 6 41.71 6 27.323V0h52.562v27.323c0 14.386-6.815 27.453-26.28 36.674z" fill="#ECEFEE"/><path d="M58.562 22.45v-.616a13.81 13.81 0 01-.764-.297c-.95-.391-1.934-.795-3.878-.795-.927 0-1.634.093-2.225.231-.648.152-1.156.36-1.653.565-.755.31-1.473.605-2.76.673-.18.01-.37.015-.573.015-1.66 0-2.472-.334-3.33-.688-.952-.39-1.935-.795-3.878-.795s-2.928.404-3.878.795c-.86.353-1.672.688-3.333.688-1.66 0-2.472-.334-3.33-.688-.951-.39-1.935-.795-3.878-.795s-2.926.404-3.877.795c-.86.353-1.671.688-3.331.688-.213 0-.411-.005-.598-.016-1.27-.07-1.985-.363-2.735-.67-.497-.204-1.004-.412-1.651-.564-.592-.139-1.298-.231-2.227-.231-1.944 0-2.928.404-3.877.794-.257.106-.512.21-.785.305v5.482c0 14.386 6.815 27.452 26.281 36.674 19.466-9.222 26.282-22.288 26.282-36.674v-4.873l-.002-.002z" fill="#007DBA"/><path d="M53.92 17.866c-1.944 0-2.928.404-3.878.795-.86.353-1.672.687-3.333.687-1.66 0-2.472-.333-3.331-.687-.95-.391-1.934-.795-3.877-.795-1.943 0-2.928.404-3.878.795-.86.353-1.672.687-3.333.687-1.66 0-2.472-.333-3.33-.687-.952-.391-1.935-.795-3.878-.795s-2.926.404-3.877.795c-.86.353-1.671.687-3.331.687s-2.472-.333-3.333-.687c-.95-.391-1.934-.795-3.877-.795-1.943 0-2.927.404-3.877.795-.257.106-.511.21-.784.304v1.509c.5-.14.919-.313 1.33-.482.86-.353 1.672-.688 3.331-.688 1.66 0 2.472.333 3.333.688.95.39 1.934.794 3.878.794 1.945 0 2.927-.404 3.877-.794.86-.353 1.672-.688 3.331-.688 1.66 0 2.472.333 3.332.688.95.39 1.934.794 3.877.794 1.943 0 2.927-.404 3.878-.794.86-.353 1.671-.688 3.332-.688 1.661 0 2.472.333 3.331.688.951.39 1.934.794 3.878.794 1.943 0 2.927-.404 3.878-.794.86-.353 1.671-.688 3.332-.688 1.661 0 2.474.333 3.333.688a11.9 11.9 0 001.31.475V18.96a13.81 13.81 0 01-.764-.297c-.951-.39-1.934-.795-3.879-.795l-.001-.001z" fill="#007DBA"/><path d="M57.798 15.785c-.95-.391-1.934-.795-3.878-.795-1.944 0-2.928.404-3.878.795-.86.353-1.672.687-3.333.687-1.66 0-2.472-.333-3.331-.687-.95-.391-1.934-.795-3.877-.795-1.943 0-2.928.404-3.878.795-.86.353-1.672.687-3.333.687-1.66 0-2.472-.333-3.33-.687-.952-.391-1.935-.795-3.878-.795s-2.926.404-3.877.795c-.86.353-1.671.687-3.331.687s-2.472-.333-3.333-.687c-.95-.391-1.934-.795-3.877-.795-1.943 0-2.927.404-3.877.795-.257.105-.511.21-.784.304v1.509c.5-.14.919-.313 1.33-.482.86-.354 1.672-.688 3.331-.688 1.66 0 2.472.333 3.333.688.95.39 1.934.794 3.878.794 1.945 0 2.927-.404 3.877-.794.86-.354 1.672-.688 3.331-.688 1.66 0 2.472.333 3.332.688.95.39 1.934.794 3.877.794 1.943 0 2.927-.404 3.878-.794.86-.354 1.671-.688 3.332-.688 1.661 0 2.472.333 3.331.688.951.39 1.934.794 3.878.794 1.943 0 2.927-.404 3.878-.794.86-.354 1.671-.688 3.332-.688 1.661 0 2.474.333 3.333.688a11.9 11.9 0 001.31.475v-1.508a13.81 13.81 0 01-.764-.297l-.002-.001z" fill="#007DBA"/><path d="M21.627 28.243a.828.828 0 01-.286-.239.46.46 0 01-.079-.354l.01-.029.004-.03c.032-.22.099-.455.172-.631 1.68.149 2.69-1.29 2.69-1.29-.098 1.521-1.55 2.253-2.511 2.573zm8.842 6.473s-1 .27-1.274.825a2.438 2.438 0 00-.599-.433c.364-.285 1.093-.716 1.873-.392zm1.153 2.896s-.913-.466-1.48-.134a6.585 6.585 0 00-.05-.893c.41-.07 1.149-.028 1.53 1.027zm-2.201 5.225c.295-.297.924-.692 1.823.001 0 0-.788.04-1.167.55-.137-.194-.354-.428-.656-.551zm-2.009.32c.032-.492.247-1.524 1.506-1.201 0 0-.956.47-.732.997-.223.216-.535.233-.776.204h.002zm1.369-3.497l.632-.767c.178.124 1.017.758.679 1.51 0 0-.767-.906-1.31-.743zm-4.598 13.646c0 .01 0 .018-.003.026 0 0 .734.819.273 1.785 0 0-.244-.901-.92-1.08a2 2 0 00.65-.73zM10.469 30.58s-2.327-1.427-2.538-3.82c0 0 .357 1.512 1.783 1.491 0 0-1.593-1.284-1.028-3.643 0 0 .021 1.502 1.132 2.278 1.221.854 1.237 1.616 1.237 1.616s.21-1.636 1.341-1.93c0 0-.734 1.427.734 4.134 1.362 2.513.611 4.537.496 4.815.077-.175.477-1.022 1.097-1.078.692-.063.86-.86.86-.86s.46 2.225-1.552 3.127c0 0 .944.077 1.597-.497 0 0-.2 1.754-1.806 2.157 0 0 .336.66 1.453 0 0 0-.419 1.144-1.174 1.256 1.314.447.87 2.325.87 2.325-.12-.905-.776-1.563-1.464-1.471-.688.092-1.149.9-1.029 1.803.12.903.758 1.48 1.464 1.47 0 0 1.823.127 2.563-1.832 0 0 .447-.028.265-.77 0 0 1.249-2.112.835-4.006.368-.516.95-1.626.731-3.272.516.73 1.337 2.174 1.318 3.96a.162.162 0 00.163.166.17.17 0 00.11-.042c.044-.04.96-.896.615-2.75.216.361.449.886.55 1.575 0 .007.005.015.007.023.002.005 0 .012.004.017 0 0 .1.272-.07.795-.165.505.236.973.493 1.21a1.55 1.55 0 01-.303.275c-.177.118-.411.224-.653.34-.696-.008-1.978.18-2.498 1.569a.164.164 0 00.153.22c.067 0 .128-.04.153-.105.261-.701.772-1.136 1.516-1.296-.471.348-.776.854-.432 1.75.162.423.367.69.582.852.043.378.026.911-.258 1.44-.626-.691-1.04-1.797-1.045-1.81a.163.163 0 10-.307.114c.026.07.646 1.728 1.588 2.333.62.398.666 1.373.626 1.998-.062.23-.249.65-.815 1.238-.397.412-.645 1.027-.645 1.711 0 1.25.834 2.262 1.864 2.262.33 0 .64-.104.908-.287 0 0 .533-.491 1.261-.173.082.244.18.613.166.91a.535.535 0 01-.28-.053c-.253-.124-.42.254-.42.254s.869.274 1.281.604c-.057.174-.304.751-1.084 1.026a.696.696 0 01-.155-.119c-.315-.315-.922-1.05-1.341-.756 0 0 .31.657.342 1.095-.154.146-.556.366-1.465.133a.656.656 0 01-.051-.326c.042-.482-.398-.964-.398-.964s-.524.44-.524.797c0 0-.524-.503-.44-1.448 0 0-.545-.168-.65.692 0 0-.588-.503-.65-1.7 0 0-.482.172-.482.643 0 0-.232-.41-.168-1.062.063-.65-.314-1.342-.314-1.342s-.566-.336-.755.167c0 0-.273-2.246 1.216-1.72 0 0 .544-.756.188-1.428a524.05 524.05 0 00-1.195-2.225s-.401.54-2.075.44c-2.85-.167-3.941-4.386-2.537-6.842 1.405-2.455 1.298-3.939 1.298-3.939-.139-1.254-.977-2.188-1.874-2.09-.897.099-1.512 1.194-1.374 2.448 0 0-.797-.974-.168-2.673 0 0-.943.461-1.09 1.259 0 0-.566-2.267 2.243-2.456l.004-.002zm10.509 24.198c.264 0 .47-.046.63-.11-.038.287-.107 1.114.308 1.287 0 0-.886.039-1.296-1.204.13.017.25.026.358.026v.001z" fill="#fff"/><path d="M23.716 52.065a2.904 2.904 0 00-.106-.658c.384.026 1.538.172 1.555.96 0 0-.843-.48-1.449-.302zm7.181-7.157c.354.255 1.09.895.767 1.625 0 0-.316-.705-.664-.769.021-.25.01-.56-.103-.856zm-10.93-20.431a.295.295 0 01.118-.067v.215a.196.196 0 10.392 0v-.23a.334.334 0 01.158.076.276.276 0 00-.001.265c.04.077.116.13.202.145.067.01.124.031.173.058a2.23 2.23 0 00-.399.26c-.018.015-.02.014-.03.028a.259.259 0 01-.149.04c-.103 0-.283-.04-.55-.23a1.136 1.136 0 00-.413-.178c.183-.11.366-.24.5-.38v-.002zm-4.043 3.836c.043 0 .088.004.128.004.652 0 1.117-.152 1.445-.339-.053 1.324.28 2.39.993 3.166.453.495.995.804 1.498.998.962.542 1.139 2.34 1.144 3.52-.34-.858-.816-1.285-.844-1.308a.163.163 0 00-.262.175c.494 1.464.201 2.38-.059 2.836-.16-2.467-1.729-4.156-1.8-4.23a.163.163 0 00-.277.152c.417 1.667-.033 2.832-.404 3.447a2.929 2.929 0 00-.338-.661s-.727-.952-.378-2.434c0 0-.46-.015-.629.84 0 0-.181-2.673.125-3.023 0 0-.32-.337-.852.503 0 0-.084-.938.531-1.637 0 0-.517-.392-.936.182 0 0-.166-1.572.913-2.191h.002zm13.979 15.455s.294.307.021.58c-.273.274-.503.693-.273.84.171.108.456-.38.754-.48.34.392.29.976.236 1.27a.347.347 0 01-.172.07c-.21.02-.44.104-.44.104s-.105.496-.609.51c0 0 .105.392.776.434 0 0-.188.329-1.279.216-1.09-.111-1.153.707-.502.875 0 0-.755.545-1.887-.126 0 0-.126.651.377 1.07 0 0-1.341.211-1.845-1.469 0 0-.398.777-.776.84 0 0 .063-.44-.167-.693-.231-.252-.273-1.008-.063-1.847 0 0-.356-.316-.293-.84.062-.524-.105-1.357-.105-1.357s-.503 1.413-1.718 1.606c-.487.077-.784.24-.967.41-.054-.587-.246-1.216-.769-1.552a1.724 1.724 0 01-.172-.128 2.7 2.7 0 00.36-1.497c.549.169 1.067-.147 1.067-.147s2.494-1.91 3.27-.819c.776 1.092.63 3.065.63 3.065s-.244 1.937 1.12 1.958c1.363.02 1.375-1.832.976-2.336 0 0-.49-.685-.257-.876.098.02.237.042.392.042.244 0 .528-.055.763-.245-.139.391-.1.849.02 1.24.01.041.074.03.067-.012l-.023-.215a2.014 2.014 0 01.056-.627c.052-.1.3-.536.63-.574 0 0 .548.119.806.706l-.004.004z" fill="#fff"/><path d="M21.42 36.74c.032-.357.242-3.045-.709-4.362.485.127 1.22.248 2.008.109a6.852 6.852 0 012.188.733.16.16 0 00.058.02l.43.065c-.317.162-.77.332-1.384.419 0 0 .392.376 1.412.6 0 0-.752.584-1.162 1.043-.386-.805-1.062-1.514-1.973-1.624a.036.036 0 00-.04.03.035.035 0 00.025.038c.235.06.465.138.664.272.594.387.911.93 1.095 1.598 0 0 4.4 3.314 3.773.056a.403.403 0 01.022-.235c.043-.105.125-.233.27-.249.25.083.77.302 1.093.79 0 .001.003.002.004.005v.017c-.234.32-.65.513-1.028.607-.043.008-.03.076.012.069.293-.031.59-.098.851-.24a1.64 1.64 0 00.354-.26.612.612 0 01.377.331c.039.309.086.84.028 1.317-.124.125-.355.246-.766.166-.755-.147-.755-.042-.755-.042s.674.24.971.58l-.987 1.2a.786.786 0 01-.593-.269c-.46-.503-.838-1.28-1.907-.02 0 0 .041-.798-.713-.819 0 0-.04.018-.096.056.093-.247.248-.478.413-.666.03-.032-.017-.08-.048-.05-.456.383-.841.974-.698 1.593-.278-.196-.813-.712-.64-1.689 0 0-.859.126-.775 1.616 0 0-.838-1.238-.755-2.54 0 0-.27.906-.714 1.564-.22-.21-.48-.548-.382-.849.174-.535.111-.863.076-.979v-.001zm-3.583-9.004c.104-.093.182-.181.238-.256.276.278.548.427.682.49.05.203.125.382.212.541a.256.256 0 00-.026.046c-.205.646-.036 1.341.282 1.915.01.017.03.024.047.016a.035.035 0 00.016-.046 2.87 2.87 0 01-.2-.898 2.03 2.03 0 01.096-.714c.12.148.253.27.391.374-.158.616.01 1.27.311 1.814.01.017.03.023.047.015a.035.035 0 00.016-.046 2.874 2.874 0 01-.2-.898 2.051 2.051 0 01.093-.706c.234.135.46.221.638.274-.032.593.066 1.801 1.365 1.98 0 0-.208.29-.8.447-.604-.098-1.596-.376-2.316-1.162-.694-.76-.994-1.831-.892-3.186z" fill="#fff"/><path d="M15.377 27.938c1.178.172 1.837-.116 2.184-.394a1.315 1.315 0 00.294-.318 2.715 2.715 0 01-.325-.546.163.163 0 01.298-.133c.384.865 1.117 1.149 1.125 1.151.052.02.09.064.103.12.215.985.999 1.37 1.46 1.513v-.003s1.008.042 1.217.63c.21.589.531.812.531.812s-.181-.6.294-1.119c.475-.517.307-.755.307-.755-2.348-.126-1.956-1.357-1.956-1.357s.196-1.33.769-1.217c.573.112.88-.084.88-.084.484.182.706-.166.808-.544-.275-.276-.66-.584-1.052-.443-.221.082-.324-.258-.096-.313.416-.091.784.174 1.035.47.05.059.095.119.14.18.067-.318.06-.622.06-.622-.224-.405-1.902-.756-1.902-.756-.587-1.231-3.885.084-4.821.434-.936.35-1.524 0-1.524 0 .35 1.203 1.48 1.12 1.48 1.12-.18.098-.293.35-.293.35-.953.374-1.145 1.47-1.017 1.826l.001-.003zm7.263-2.073a.149.149 0 11.298 0 .149.149 0 01-.298 0zm-.43-.238a.149.149 0 11.297 0 .149.149 0 01-.298 0zm-.366.363a.149.149 0 11.297 0 .149.149 0 01-.297 0zm-1.957 2.151l.105-1.538a.186.186 0 01.017-.064c.453-.885 1.506-1.027 1.55-1.032a.161.161 0 01.181.141.164.164 0 01-.14.183c-.01 0-.903.125-1.286.828l-.1 1.48c.014.052.078.233.316.425a.163.163 0 01-.103.29.161.161 0 01-.103-.037c-.374-.303-.431-.608-.437-.642a.173.173 0 010-.036v.002zm-1.239-3.187s.77-.306 1.12-.67c.348-.363 1.343-.166 1.11.321.371.059.545.335.545.335s.063.175-.121.19c-.184.014-.519.284-.519.284s-.325.374-1.065-.153c-.383-.273-1.006-.124-1.006-.124s-.119.043-.153-.035c-.045-.106.087-.146.087-.146l.002-.002zm-2.712 2.543c-.01-.41.218-.813.593-.992.218-.106.352.23.123.303-.324.068-.557.343-.638.662.324.026.656-.102.826-.384a.165.165 0 01.26-.024c.152.185-.127.34-.266.422a1.094 1.094 0 01-.873.052.03.03 0 01-.02-.026c-.001-.004-.005-.008-.005-.012v-.001zm10.669-2.107a1.38 1.38 0 00-.003.145c-.46.062-.876.205-1.148.315.01-.128.033-.257.076-.385.269-.809 1.054-1.274 1.754-1.041 0 0-.623.28-.68.966zm2.182.162a2.104 2.104 0 00-1.096-.114c.303-.573.878-1.216 1.91-1.124 0 0-.652.55-.816 1.239l.002-.001zm-2.399 1.818c-.487-.162-.841-.629-.92-1.17.242-.106.703-.28 1.207-.345a.68.68 0 00.408.335c.015.34.147.65.32.933a.036.036 0 00.05.01.034.034 0 00.014-.04c-.092-.294-.159-.533-.081-.829 0 0 .036-.19.135-.452.212-.07.67-.158 1.23.077.008.312.144.64.498.946a2.87 2.87 0 00-1.13.98.035.035 0 00.008.05c.015.01.034.007.046-.006.1-.107.2-.21.313-.298.31-.247.674-.38 1.057-.46.142.25.45.7.936.957.046.193.058.487-.193.697-.405.336-.95.223-.95.223s-.28-.027-.462.252c-.181.28-.321.406-.642.42 0 0 .49.405 1.328.056 0 0-.363.965-1.272.952 0 0 .46.378 1.076.322 0 0-.378.88-2.027.77 0 0 .154.461.824.657 0 0-.769.84-2.194.504 0 0-.05.052-.148.129l-.775-.119a7.095 7.095 0 00-1.619-.63c1.264-.49 2.511-1.804 2.963-4.92zm4.116.322c-.34-.225-.566-.561-.677-.755.457-.28 1.507-.763 2.165.195 0 0-1.031-.145-1.488.561v-.001zm12.431.551a.827.827 0 00.286-.239.46.46 0 00.079-.354l-.01-.029-.003-.03c-.033-.22-.1-.455-.173-.631-1.68.149-2.69-1.29-2.69-1.29.098 1.521 1.55 2.253 2.511 2.573zm-8.841 6.473s1 .27 1.273.825c.193-.192.405-.332.6-.433-.365-.285-1.094-.716-1.873-.392zm-1.154 2.896s.914-.466 1.481-.134c-.005-.34.022-.663.05-.893-.41-.07-1.149-.028-1.53 1.027zm2.201 5.225c-.295-.297-.923-.692-1.823.001 0 0 .789.04 1.168.55.137-.194.353-.428.655-.551zm2.012.32c-.033-.493-.247-1.524-1.507-1.201 0 0 .957.47.732.997.223.216.535.233.776.204h-.001zm-1.371-3.497l-.632-.767c-.178.124-1.017.758-.679 1.51 0 0 .767-.906 1.31-.743zm4.598 13.646c0 .01 0 .018.003.026 0 0-.735.819-.273 1.785 0 0 .244-.901.92-1.08a1.985 1.985 0 01-.65-.731zM54.094 30.58s2.327-1.427 2.537-3.82c0 0-.357 1.512-1.782 1.491 0 0 1.593-1.284 1.027-3.643 0 0-.02 1.502-1.132 2.278-1.22.854-1.237 1.616-1.237 1.616s-.21-1.636-1.34-1.93c0 0 .733 1.427-.735 4.134-1.362 2.513-.61 4.537-.496 4.815-.077-.175-.476-1.022-1.097-1.078-.692-.063-.859-.86-.859-.86s-.46 2.224 1.551 3.127c0 0-.944.077-1.597-.497 0 0 .2 1.754 1.806 2.157 0 0-.335.66-1.453 0 0 0 .42 1.144 1.174 1.256-1.314.447-.87 2.325-.87 2.325.12-.905.776-1.563 1.464-1.471.688.091 1.15.9 1.029 1.803-.12.904-.757 1.48-1.464 1.47 0 0-1.823.127-2.563-1.832 0 0-.447-.028-.265-.77 0 0-1.249-2.112-.835-4.006-.368-.517-.95-1.626-.73-3.272-.517.73-1.338 2.174-1.319 3.96a.162.162 0 01-.163.166.167.167 0 01-.11-.042c-.044-.04-.96-.896-.614-2.75-.217.361-.45.886-.55 1.575 0 .007-.005.015-.008.023-.001.005 0 .012-.004.017 0 0-.1.272.07.795.165.505-.236.973-.493 1.21.095.11.197.204.303.275.178.118.411.224.653.34.696-.008 1.978.18 2.498 1.569a.164.164 0 01-.153.22.163.163 0 01-.153-.105c-.26-.701-.771-1.136-1.516-1.296.472.348.776.854.432 1.75-.162.423-.367.69-.582.852a2.44 2.44 0 00.259 1.44c.625-.691 1.04-1.797 1.044-1.81a.163.163 0 11.307.114c-.026.07-.646 1.728-1.588 2.333-.62.398-.666 1.373-.625 1.998.061.23.248.65.815 1.238.397.412.645 1.027.645 1.711 0 1.25-.835 2.262-1.865 2.262a1.6 1.6 0 01-.908-.287s-.532-.491-1.261-.173c-.082.244-.179.613-.166.91a.535.535 0 00.28-.053c.253-.124.42.254.42.254s-.868.274-1.28.604c.056.174.303.751 1.083 1.026a.694.694 0 00.155-.119c.315-.315.922-1.05 1.341-.756 0 0-.31.657-.342 1.095.154.146.556.366 1.465.133a.655.655 0 00.051-.326c-.041-.482.399-.964.399-.964s.523.44.523.797c0 0 .524-.503.44-1.449 0 0 .545-.167.65.693 0 0 .588-.503.65-1.7 0 0 .483.172.483.643 0 0 .23-.41.167-1.062-.063-.65.315-1.342.315-1.342s.565-.336.754.167c0 0 .273-2.246-1.215-1.72 0 0-.545-.756-.188-1.428.356-.672 1.194-2.225 1.194-2.225s.401.54 2.075.44c2.851-.167 3.941-4.386 2.538-6.842-1.406-2.455-1.298-3.94-1.298-3.94.138-1.253.976-2.188 1.873-2.09.898.1 1.513 1.195 1.374 2.45 0 0 .797-.975.169-2.674 0 0 .943.461 1.09 1.259 0 0 .566-2.267-2.243-2.456l-.004-.002zM43.586 54.778a1.68 1.68 0 01-.63-.11c.038.287.108 1.114-.308 1.287 0 0 .886.039 1.296-1.204-.13.017-.25.026-.358.026v.001z" fill="#fff"/><path d="M40.847 52.065c.006-.227.052-.461.106-.658-.384.026-1.538.172-1.555.96 0 0 .843-.48 1.449-.302zm-7.181-7.157c-.354.255-1.091.895-.767 1.625 0 0 .316-.705.664-.769-.021-.25-.01-.56.103-.856zm10.93-20.431a.295.295 0 00-.118-.067v.215a.196.196 0 11-.392 0v-.23a.327.327 0 00-.158.075.276.276 0 01.001.265.281.281 0 01-.202.146.537.537 0 00-.173.057c.166.082.322.2.399.262.018.014.02.013.03.027a.26.26 0 00.149.04c.103 0 .283-.04.55-.23.117-.084.256-.143.413-.178a2.48 2.48 0 01-.5-.38v-.002zm4.042 3.836c-.043 0-.088.004-.128.004-.652 0-1.116-.152-1.444-.339.052 1.324-.281 2.39-.994 3.166a3.928 3.928 0 01-1.498.998c-.962.542-1.139 2.34-1.144 3.52.34-.858.816-1.285.844-1.308a.163.163 0 01.262.175c-.493 1.464-.2 2.38.06 2.835.16-2.466 1.728-4.155 1.799-4.23a.163.163 0 01.277.152c-.417 1.668.033 2.833.404 3.448a2.91 2.91 0 01.338-.661s.728-.952.378-2.434c0 0 .46-.015.63.839 0 0 .18-2.672-.126-3.023 0 0 .321-.335.852.504 0 0 .084-.938-.531-1.637 0 0 .517-.392.936.182 0 0 .166-1.572-.912-2.191h-.003zM34.66 43.768s-.293.307-.02.58c.272.273.502.693.272.84-.17.108-.455-.38-.753-.48-.34.392-.291.976-.236 1.27a.347.347 0 00.172.07c.21.02.44.104.44.104s.105.496.609.51c0 0-.105.392-.776.434 0 0 .188.328 1.278.216 1.09-.111 1.153.707.503.875 0 0 .755.545 1.887-.126 0 0 .125.651-.377 1.07 0 0 1.34.211 1.845-1.469 0 0 .398.777.775.84 0 0-.062-.441.167-.693.232-.253.273-1.008.063-1.847 0 0 .357-.316.294-.84s.105-1.357.105-1.357.502 1.413 1.718 1.606c.487.077.783.24.966.41.055-.587.247-1.216.77-1.552a1.75 1.75 0 00.172-.128 2.701 2.701 0 01-.36-1.497c-.55.169-1.068-.148-1.068-.148s-2.494-1.91-3.27-.818c-.775 1.092-.629 3.065-.629 3.065s.243 1.937-1.12 1.958c-1.363.02-1.375-1.832-.977-2.336 0 0 .491-.685.257-.876a1.91 1.91 0 01-.391.042c-.245 0-.528-.055-.763-.245.138.391.1.849-.02 1.24-.01.041-.074.03-.067-.012l.023-.215a2.014 2.014 0 00-.056-.627c-.052-.1-.3-.536-.63-.574 0 0-.548.119-.806.706l.003.004z" fill="#fff"/><path d="M43.143 36.74c-.033-.357-.243-3.045.708-4.362-.485.127-1.22.248-2.007.109a6.858 6.858 0 00-2.189.733.142.142 0 01-.057.02l-.43.065c.316.162.77.332 1.383.419 0 0-.392.376-1.412.6 0 0 .752.584 1.163 1.043.385-.805 1.061-1.514 1.973-1.624.02-.002.036.01.04.029a.035.035 0 01-.026.04 2.056 2.056 0 00-.663.271c-.594.387-.912.93-1.096 1.598 0 0-4.4 3.314-3.773.056a.403.403 0 00-.022-.235c-.043-.105-.125-.233-.27-.249-.25.083-.77.302-1.093.79 0 .001-.003.002-.004.005v.017c.234.32.65.513 1.028.607.043.008.031.076-.012.069a2.28 2.28 0 01-.851-.24 1.677 1.677 0 01-.354-.26.612.612 0 00-.376.331c-.04.309-.086.84-.029 1.317.124.125.355.246.767.166.754-.147.754-.042.754-.042s-.674.24-.971.58l.987 1.2a.785.785 0 00.593-.269c.46-.503.838-1.28 1.908-.02 0 0-.042-.798.713-.82 0 0 .04.02.095.057a2.245 2.245 0 00-.413-.667c-.03-.031.017-.08.049-.05.455.384.84.975.697 1.594.278-.196.813-.712.64-1.689 0 0 .859.126.775 1.616 0 0 .839-1.238.755-2.54 0 0 .27.906.715 1.564.219-.21.479-.548.38-.849-.173-.535-.11-.863-.075-.98zm3.582-9.004a1.837 1.837 0 01-.238-.256 2.453 2.453 0 01-.681.49 2.273 2.273 0 01-.213.541.28.28 0 01.026.046c.205.646.036 1.341-.282 1.915a.036.036 0 01-.047.016.035.035 0 01-.016-.046c.111-.286.185-.59.2-.898a2.035 2.035 0 00-.095-.714c-.12.148-.254.27-.392.374.158.616-.01 1.27-.311 1.813a.036.036 0 01-.047.016.035.035 0 01-.016-.046 2.87 2.87 0 00.2-.898 2.046 2.046 0 00-.093-.706c-.233.135-.46.221-.638.274.032.593-.065 1.801-1.365 1.98 0 0 .208.29.8.447.604-.098 1.596-.376 2.316-1.162.695-.76.994-1.832.892-3.186z" fill="#fff"/><path d="M48.168 26.111s-.112-.252-.294-.35c0 0 1.132.083 1.48-1.12 0 0-.587.351-1.523 0-.936-.35-4.235-1.665-4.821-.433 0 0-1.677.35-1.901.755 0 0-.008.305.06.623.044-.062.09-.122.14-.18.25-.296.618-.56 1.034-.47.228.055.124.395-.096.312-.393-.14-.775.168-1.052.444.102.377.324.725.808.543 0 0 .307.196.88.084s.77 1.217.77 1.217.391 1.232-1.957 1.357c0 0-.167.238.307.756.475.517.294 1.119.294 1.119s.321-.224.531-.812c.21-.588 1.216-.63 1.216-.63v.002c.464-.143 1.246-.526 1.461-1.513a.167.167 0 01.103-.12c.007-.002.74-.286 1.125-1.151a.162.162 0 01.215-.082c.083.036.12.133.083.215a2.715 2.715 0 01-.324.547 1.385 1.385 0 00.293.317c.346.277 1.006.566 2.184.394.128-.357-.064-1.453-1.017-1.826v.002zm-6.395-.097a.149.149 0 110-.297.149.149 0 010 .297zm.432-.238a.149.149 0 110-.297.149.149 0 010 .297zm.366.363a.149.149 0 110-.298.149.149 0 010 .298zm2.104 2.039c-.005.034-.063.337-.436.642a.16.16 0 01-.103.037.165.165 0 01-.127-.06.165.165 0 01.023-.23c.237-.193.302-.373.316-.426l-.1-1.48c-.383-.703-1.277-.827-1.285-.827a.163.163 0 01.04-.324c.045.005 1.097.146 1.55 1.031a.16.16 0 01.017.064l.105 1.539c0 .012 0 .025-.002.037l.002-.003zm1.327-3.077c-.035.078-.153.035-.153.035s-.623-.15-1.006.124c-.739.527-1.065.153-1.065.153s-.335-.27-.519-.285c-.184-.014-.121-.19-.121-.19s.175-.275.544-.334c-.232-.488.763-.684 1.112-.32.348.363 1.119.669 1.119.669s.133.04.086.146l.002.002zm2.62 2.409c-.001.012-.006.022-.02.026a1.09 1.09 0 01-.873-.052c-.137-.081-.416-.236-.266-.422a.166.166 0 01.26.024c.17.282.501.41.826.383-.08-.319-.312-.593-.637-.661-.23-.075-.095-.41.123-.303.374.179.603.583.593.992 0 .005-.004.008-.006.012v.001zm-10.663-2.12c.004.052.004.099.002.145.46.062.877.205 1.148.315a1.545 1.545 0 00-.076-.385c-.269-.809-1.053-1.274-1.753-1.042 0 0 .623.28.679.967zm-2.182.162a2.1 2.1 0 011.096-.114c-.303-.573-.878-1.216-1.911-1.124 0 0 .653.55.816 1.239l-.001-.001zm2.397 1.818c.487-.162.841-.629.92-1.17a4.676 4.676 0 00-1.207-.345.68.68 0 01-.407.335c-.016.34-.148.65-.322.933a.034.034 0 01-.048.01.034.034 0 01-.014-.04c.091-.294.158-.533.08-.829 0 0-.036-.19-.135-.452-.212-.07-.67-.158-1.229.077-.01.312-.145.64-.499.946.456.223.849.559 1.131.98a.035.035 0 01-.01.05.034.034 0 01-.045-.006c-.099-.107-.2-.21-.313-.298-.31-.247-.674-.38-1.057-.46-.142.25-.45.7-.936.957-.046.193-.057.487.193.697.405.335.951.223.951.223s.28-.027.461.252c.181.28.321.406.642.42 0 0-.49.405-1.328.056 0 0 .363.965 1.272.952 0 0-.46.378-1.076.322 0 0 .378.88 2.027.77 0 0-.154.461-.824.657 0 0 .77.84 2.194.504 0 0 .05.052.149.129l.774-.119a7.088 7.088 0 011.62-.63c-1.265-.49-2.512-1.804-2.964-4.92zm-4.116.322c.34-.225.566-.561.677-.755-.457-.28-1.507-.763-2.165.195 0 0 1.031-.145 1.488.561v-.001z" fill="#fff"/><path d="M47.249 3.983c.048-1.28.452-2.048.458-2.061a.257.257 0 00-.45-.247c-.02.038-.456.857-.518 2.237.177.003.346.028.51.071zm.581 9.77c-.749-.255-1.522-.1-1.988.048a2.174 2.174 0 01-1.584-.088 2.684 2.684 0 01-1.529-2.572c.026-.492.19-.95.45-1.339l.015-.023c.845-1.27 1.097-2.955 1.16-3.508.172-1.128 1.164-2.18 2.34-2.18 1.175 0 2.167 1.062 2.349 2.18.118 1.564.748 2.883 1.08 3.482a2.664 2.664 0 01.48 1.532c.001 1.482-1.371 2.944-2.773 2.467v.001z" fill="#4D4D4C"/><path d="M46.644 14.973c.199 0 .36-.257.36-.572 0-.315-.161-.57-.36-.57" fill="#4D4D4C"/><path d="M45.837 14.638c.14.14.435.073.657-.15.224-.224.29-.518.15-.658" fill="#4D4D4C"/><path d="M47.451 14.638c.14-.14.074-.435-.15-.658-.223-.223-.517-.29-.657-.15M18.466 3.983c.048-1.28.452-2.048.458-2.061a.257.257 0 00-.45-.247c-.02.038-.456.857-.518 2.237.177.003.346.028.51.071zm.581 9.77c-.749-.255-1.522-.1-1.988.048a2.174 2.174 0 01-1.584-.088 2.684 2.684 0 01-1.529-2.572c.026-.492.19-.95.45-1.339l.015-.023c.845-1.27 1.097-2.955 1.16-3.508.172-1.128 1.164-2.18 2.34-2.18 1.175 0 2.167 1.062 2.349 2.18.118 1.564.748 2.883 1.08 3.482a2.664 2.664 0 01.48 1.532c.001 1.482-1.371 2.944-2.773 2.467v.001z" fill="#4D4D4C"/><path d="M17.861 14.973c.198 0 .36-.257.36-.572 0-.315-.162-.57-.36-.57" fill="#4D4D4C"/><path d="M17.054 14.638c.14.14.435.073.657-.15.224-.224.29-.518.15-.658" fill="#4D4D4C"/><path d="M18.668 14.638c.14-.14.073-.435-.15-.658-.223-.223-.517-.29-.657-.15m17.225-8.239l.013-.009c.126-.08.264-.09.367-.103a.584.584 0 00.08-.089c.082-.111.105-.204.13-.353.023-.145.05-.2.058-.259-.056.024-.09.063-.204.131-.099.06-.235.124-.318.237a.589.589 0 00-.118.367l-.008.078zm-1.487.349s.103-.116.326-.15a.557.557 0 00.424-.355l.006-.016a.043.043 0 00.005-.016l.008-.023c.076-.212.098-.251.118-.3.016-.039.02-.077.005-.066-.04.028-.08.117-.202.155a.983.983 0 01-.03.008h-.002c-.032.008-.07.016-.115.024-.168.03-.368.146-.456.458l-.087.281zm2.125-1.345c.096-.103.14-.26.184-.374.05-.128.08-.176.094-.238-.034.016-.088.021-.224.062-.126.035-.243.135-.338.238a.676.676 0 00-.13.205c-.02.05-.093.3-.134.38a.62.62 0 01.212-.1.603.603 0 00.336-.174v.001zm-1.002-.648c.007-.029.031-.415.031-.415s-.065.232-.286.3a.593.593 0 00-.44.474c-.007.028-.064.306-.064.306s.09-.144.318-.19c.146-.028.373-.147.441-.475zm.222 1.322c-.046.043-.072.094-.156.202-.074.096-.186.213-.226.35a.615.615 0 00.024.377.594.594 0 01.022.233c.05-.076.226-.267.258-.309a.652.652 0 00.11-.217c.038-.134.065-.286.03-.413-.035-.137-.058-.186-.062-.223zm-1.154.023s.099-.154.326-.195c.234-.042.404-.242.455-.47l.065-.293s-.073.127-.316.172c-.173.032-.374.153-.453.467l-.076.319zm1.181.824a.822.822 0 01-.04.057c.155-.056.274-.056.392-.115a.695.695 0 00.287-.303c.048-.09.119-.195.145-.25a.803.803 0 01-.244.064c-.113.017-.258.022-.374.097-.017.012-.034.023-.05.037a.866.866 0 01-.034.228.746.746 0 01-.082.186v-.001zm-1.17.527c-.165.291-.073.53.018.65.142.184.114.35.114.35l.154-.271a.593.593 0 00-.018-.647c-.12-.196-.017-.413-.017-.413s-.235.307-.25.332v-.002zm-3.338 2.09c.1.203.297.24.454.233a.639.639 0 01.211.02c.027.01.051.02.075.034 0 0-.042-.101-.089-.18a.475.475 0 00-.436-.234c-.203.007-.305-.029-.305-.029l.034.054.055.102h.002zm2.808-1.137c-.004-.019-.026.014-.04.054-.019.05-.026.093-.11.304l-.01.022-.006.016-.005.015a.553.553 0 00.084.547.563.563 0 01.145.328l.12-.27c.14-.292.066-.512-.04-.645-.028-.035-.05-.067-.07-.094V7.87a.276.276 0 01-.017-.026c-.067-.107-.038-.202-.05-.25zm.195-.34c-.111.204-.117.466.032.652.144.18.117.36.117.36l.154-.288c.147-.288.075-.513-.033-.65-.153-.195-.124-.338-.124-.338l-.145.264h-.001zm.979-4.964l.004.015.046-.064a.589.589 0 00.154-.354c.012-.14-.049-.277-.084-.388-.04-.126-.04-.178-.066-.233-.033.05-.047.109-.127.234-.081.128-.124.212-.136.35a.619.619 0 00.001.12c.07.08.166.179.208.321v-.001zm.097.833l-.019.01a.687.687 0 00-.163.137.77.77 0 00-.178.364l-.07.349s.064-.145.308-.255c.01-.004.017-.01.026-.013.055-.03.088-.042.136-.087.109-.1.173-.278.21-.485a6.477 6.477 0 00-.009-.34s-.035.203-.24.32h-.001zm-.215-.508a.667.667 0 00-.061.236c-.004.052.003.312-.01.402a.65.65 0 01.17-.16.614.614 0 00.267-.269c.06-.128.054-.291.06-.411.008-.138.023-.193.017-.255-.027.025-.077.047-.193.126-.11.072-.19.203-.25.331zm.933 1.778a.746.746 0 01.116-.166.856.856 0 01.178-.146.47.47 0 00.005-.062c.005-.138-.064-.265-.107-.371a.771.771 0 01-.07-.243c-.035.05-.088.165-.14.252a.699.699 0 00-.114.403c.01.13.07.234.102.396a.955.955 0 01.029-.064v.001zm-1.144 2.102c.006.066.023.097.044.155l.01.027c.112.246.065.396.065.396l.176-.31a.767.767 0 00.075-.601l-.007-.02a.51.51 0 01.03-.4s-.215.227-.23.25c-.11.18-.179.356-.163.502v.001zm-3.975 1.716c.004.006.01.013.013.02l.01.015.008.013a.58.58 0 00.495.251.483.483 0 01.365.142l-.145-.313c-.1-.212-.308-.372-.551-.353a1.462 1.462 0 01-.123.005c-.135-.005-.204-.07-.264-.077-.018-.001-.001.029.025.06.032.038.05.057.166.238l.001-.001zm4.041-5.366a.709.709 0 01.068-.263.851.851 0 01.126-.193l-.013-.06c-.038-.133-.143-.233-.217-.32a.747.747 0 01-.141-.21c-.017.06-.033.185-.056.284a.69.69 0 00.015.418c.05.122.139.202.218.346v-.002zm.561 1.759c.011.064.039.117.065.174l.012.026c.124.239.075.39.075.39l.172-.31a.7.7 0 00.035-.594s-.005-.013-.01-.02c-.116-.209-.015-.4-.015-.4s-.19.242-.205.264c-.076.118-.157.327-.13.471v-.001zm-1.326 4.379a.601.601 0 01.212-.02c.157.007.354-.03.453-.233l.055-.102.034-.054s-.1.035-.304.029a.478.478 0 00-.437.234c-.047.078-.088.179-.088.179v.001a.42.42 0 01.075-.034zm.956-.724l.01-.013a.089.089 0 00.009-.014l.013-.021c.115-.18.133-.2.166-.238.026-.03.043-.062.025-.06-.06.006-.13.071-.264.077-.036 0-.076-.003-.123-.006-.242-.017-.45.142-.552.353-.011.027-.144.314-.144.314s.13-.15.364-.142a.586.586 0 00.495-.251l.002.001zm.697-1.249c.015-.023.107-.298.107-.298s-.09.138-.32.104c-.175-.026-.405.026-.56.304-.015.025-.145.276-.145.276s.124-.115.357-.09a.567.567 0 00.562-.294v-.002zm.58-2.985c.023-.016.043-.032.063-.048a.587.587 0 00.255-.29c.055-.13.039-.278.04-.395 0-.132.016-.181.008-.241-.046.037-.078.088-.192.183a.712.712 0 00-.238.291.635.635 0 00-.035.114c.042.095.105.22.1.369v.017zm-.136 1.978s-.113.184-.352.192l-.022.002a.598.598 0 00-.201.063.702.702 0 00-.292.273l-.177.306s.104-.119.372-.134c.01 0 .02-.003.029-.003.061-.008.121-.01.183-.034.137-.051.274-.228.337-.353.012-.024.121-.311.121-.311l.002-.001zm-.725 1.56l.132-.245s-.124.124-.395.076c-.174-.032-.405.039-.554.324l-.143.293s.132-.127.36-.114c.238.014.48-.12.599-.334zm.497-.102c-.037.038-.061.075-.222.233-.007.005-.012.012-.017.017l-.012.012c-.004.004-.008.008-.01.012a.557.557 0 00-.144.533c.063.217 0 .36 0 .36s.196-.18.218-.198c.247-.212.268-.443.224-.608a1.74 1.74 0 01-.028-.113v-.002l-.005-.03c-.017-.125.047-.2.055-.248.002-.018-.03.002-.059.034v-.002zm.372-.266c-.184.142-.294.38-.233.61a.496.496 0 01-.039.377l.258-.203c.25-.205.275-.438.231-.608-.061-.239.022-.36.022-.36l-.239.184zm-1.78-3.913l.02.02c.192.19.19.349.19.349l.069-.347a.712.712 0 00-.038-.397.636.636 0 00-.111-.18l-.015-.016c-.175-.164-.137-.377-.137-.377s-.107.29-.114.314c-.036.135-.048.358.021.488.032.057.073.099.115.146zm1.74 2.836c-.004.068.007.099.02.16 0 .01.003.019.006.03.072.26 0 .4 0 .4s.211-.264.223-.277a.776.776 0 00.166-.368.684.684 0 00.001-.213l-.004-.021a.502.502 0 01.093-.39s-.248.19-.266.212c-.136.16-.233.323-.24.47v-.002zm-6.716 1.861c.022.019.257.203.257.203s-.098-.154-.039-.377c.061-.23-.048-.468-.233-.61l-.239-.183s.085.12.023.36c-.043.17-.019.402.23.607zm7.226-2.082a.612.612 0 01-.014.234c.06-.067.265-.23.303-.264a.682.682 0 00.142-.198c.06-.127.109-.273.096-.403-.012-.14-.028-.193-.025-.23-.051.037-.085.083-.186.176-.089.082-.218.18-.278.31a.612.612 0 00-.037.376v-.001zM29.25 7.71a1.75 1.75 0 01-.027.114c-.044.165-.024.396.223.608l.218.198s-.06-.143 0-.36a.557.557 0 00-.165-.557l-.017-.017c-.161-.158-.186-.195-.223-.233-.028-.03-.06-.052-.058-.034.008.049.073.125.055.249l-.006.03v.001z" fill="#4D4D4C"/><path d="M31.67 8.67c-.016-.095-.028-.175-.1-.323 0 .021-.001.03-.003.051 0 0-.002.046-.02.114a.648.648 0 01-.127.24.55.55 0 00-.145.308.42.42 0 01.121.162l.013.04c-.102-.176-.285-.196-.453-.205a.862.862 0 01-.268-.061.64.64 0 01-.102-.053l-.042-.028s.078.125.171.227a.92.92 0 00.35.21.64.64 0 01.255.189l.148.33a.495.495 0 01.132-.003l.127.013-.126-.375a.668.668 0 010-.348c.06-.185.092-.344.067-.49l.003.002zm4.904-2.102s-.34.186-.362.203c-.27.2-.28.457-.244.601a.492.492 0 01-.038.367l.25-.187a.594.594 0 00.245-.6c-.031-.228.15-.385.15-.385l-.001.001zm-.055-.131c.142-.028.307-.181.388-.295.014-.021.169-.288.169-.288s-.14.165-.378.135h-.022a.596.596 0 00-.21.03.697.697 0 00-.329.223l-.223.275s.121-.102.39-.075c.008 0 .019 0 .028.002.063.002.122.008.186-.005v-.002zm.589.243a.616.616 0 01-.074.221c.076-.05.314-.153.36-.179a.679.679 0 00.189-.154c.09-.109.175-.237.193-.366.025-.139.023-.194.034-.229-.058.022-.103.058-.224.123-.108.058-.256.119-.348.229a.608.608 0 00-.13.354zm-6.751 1.219c.23-.013.36.114.36.114l-.143-.293c-.15-.285-.38-.356-.554-.324-.27.048-.395-.076-.395-.076l.132.245a.66.66 0 00.598.334h.002zm6.166-2.02a.892.892 0 01-.049.051c.162-.031.28-.013.405-.052a.69.69 0 00.332-.255c.061-.081.148-.174.183-.224a.76.76 0 01-.25.025c-.115 0-.258-.018-.385.038l-.055.027a.841.841 0 01-.07.22.722.722 0 01-.11.17h-.002zm.453.935a.69.69 0 00.056-.205l.003-.023c.02-.235.188-.353.188-.353s-.289.122-.311.138c-.173.12-.307.253-.352.394-.02.063-.017.097-.02.16 0 .009-.002.02 0 .029.003.269-.101.388-.101.388l.286-.212a.783.783 0 00.255-.315l-.004-.001zm.136-1.487a.636.636 0 00.092-.075.716.716 0 00.183-.329c.046-.14.081-.19.1-.245-.06.014-.1.047-.223.096-.108.045-.252.085-.35.185a.595.595 0 00-.175.345l-.02.076c.006-.003.01-.006.015-.007.136-.059.274-.047.379-.044l-.001-.002zm-6.885-.821c-.243-.044-.316-.172-.316-.172l.065.294c.051.227.221.427.455.47.226.04.325.194.325.194l-.075-.319c-.08-.314-.281-.435-.454-.467zm.393 1.284c.224.034.327.15.327.15s-.08-.253-.087-.28c-.088-.314-.288-.43-.456-.46a1.907 1.907 0 01-.115-.023h-.002a.983.983 0 01-.03-.008c-.12-.036-.162-.127-.202-.155-.016-.01-.01.028.005.066.02.05.042.088.117.3l.008.023c.003.005.004.01.006.016l.006.016a.557.557 0 00.423.355zm-.542-1.958c-.22-.068-.286-.3-.286-.3s.025.386.032.415c.068.328.295.447.441.476.228.045.318.19.318.19l-.064-.307a.595.595 0 00-.44-.474zm-.042 1.912s.106.176.03.4l-.006.021a.677.677 0 00-.031.21c0 .143.04.28.105.392.01.015.177.31.177.31s-.049-.15.064-.397c.004-.009.008-.018.01-.027.022-.059.038-.089.045-.154.015-.148-.054-.323-.164-.502-.014-.024-.23-.251-.23-.251v-.002zm-.546.925c.062.022.121.026.184.034l.029.002c.269.016.372.135.372.135l-.178-.306a.694.694 0 00-.492-.336s-.015-.003-.023-.003a.444.444 0 01-.351-.192s.11.288.121.311c.062.126.2.302.337.353l.002.002zm.112-1.4c-.004.036-.028.086-.062.223-.034.127-.009.279.03.413a.654.654 0 00.11.217c.033.042.209.233.257.309a.643.643 0 01.023-.233.614.614 0 00.023-.378c-.04-.136-.152-.253-.226-.349-.085-.108-.111-.16-.155-.202z" fill="#4D4D4C"/><path d="M31.208 7.871v.002c-.02.027-.042.059-.07.094-.108.133-.18.353-.04.646.013.026.12.269.12.269s0-.156.145-.328a.557.557 0 00.084-.547l-.005-.015-.007-.016a.114.114 0 00-.009-.022c-.083-.21-.091-.254-.11-.304-.014-.039-.035-.071-.04-.054-.012.048.017.142-.05.25l-.017.025h-.001zm-.748-.499c.013.025.154.272.154.272s-.028-.167.113-.352c.09-.117.183-.358.019-.65-.015-.024-.25-.332-.25-.332s.103.217-.017.414a.593.593 0 00-.018.647l-.001.001zm-1.237-1.314c.118.059.237.059.392.115a.702.702 0 01-.123-.243.816.816 0 01-.034-.229.375.375 0 00-.05-.036c-.116-.075-.26-.081-.373-.097a.768.768 0 01-.244-.064c.026.055.096.16.145.25a.686.686 0 00.287.303v.001zm.814 1.247a.465.465 0 01.357.09l-.144-.275c-.156-.279-.386-.33-.56-.305-.23.034-.32-.103-.32-.103s.092.274.105.298a.57.57 0 00.562.294v.001zm-1.022-2.396c-.113-.068-.147-.107-.203-.13.009.058.036.112.058.258.024.15.047.242.13.353a.655.655 0 00.08.089c.103.013.241.024.367.103l.013.01-.008-.079a.594.594 0 00-.118-.367c-.083-.113-.218-.177-.319-.237zm1.765 3.07c.012.026.154.288.154.288s-.028-.18.116-.36c.149-.186.144-.449.033-.653a45.713 45.713 0 01-.145-.264s.028.144-.125.339c-.108.137-.179.362-.032.65h-.002zm-1.674-3.695c-.096-.103-.213-.203-.339-.238-.134-.042-.19-.046-.223-.061.014.061.044.11.094.238.044.112.086.269.184.374a.62.62 0 00.336.173c.053.012.15.053.212.101-.04-.081-.114-.33-.134-.38a.65.65 0 00-.13-.206zm3.517.562a.595.595 0 00-.31.569c0 .029.013.312.013.312s.052-.162.26-.261c.136-.064.326-.235.312-.57 0-.029-.072-.41-.072-.41s-.007.241-.204.362l.002-.002zm-5.282.407c.03.029.06.053.093.076.105-.003.243-.015.379.044l.014.007a4.842 4.842 0 00-.02-.076.6.6 0 00-.173-.345c-.1-.098-.243-.14-.352-.185-.122-.05-.163-.082-.222-.096.019.056.054.105.1.245.047.144.083.232.183.329h-.002zm-.378 1.315a.642.642 0 00.188.154c.046.025.285.13.36.18a.616.616 0 01-.073-.223.605.605 0 00-.13-.354c-.092-.109-.242-.171-.348-.229-.12-.065-.165-.1-.225-.123.012.035.01.09.034.229.02.13.104.257.194.366zm1.52 1.509c.205-.105.376-.042.376-.042s-.227-.192-.25-.21c-.25-.2-.49-.173-.637-.074-.227.153-.39.089-.39.089l.219.173a.66.66 0 00.682.064zm-2.25-1.75a.62.62 0 00.108.05c.1-.029.231-.076.378-.053.005 0 .01 0 .015.002l-.039-.07a.586.586 0 00-.256-.288c-.121-.07-.272-.073-.387-.089-.13-.017-.178-.04-.239-.038.032.051.079.089.158.213.083.128.14.203.26.272l.002.001zm2.344-2.637a.6.6 0 00.254.29l.063.048v-.016c-.004-.148.058-.272.1-.369a.597.597 0 00-.036-.113c-.053-.128-.12-.195-.238-.292-.113-.094-.146-.145-.192-.183-.009.06.007.11.008.242 0 .116-.014.265.04.395V3.69zm-1.2 3.567c.009-.003.018-.005.027-.01.253-.093.396-.025.396-.025l-.285-.208a.706.706 0 00-.376-.134.608.608 0 00-.21.025l-.021.007a.444.444 0 01-.399-.034s.217.22.237.235c.107.09.304.196.45.187.066-.004.122-.025.18-.043zm-.267-.46a.78.78 0 01-.333-.367.402.402 0 00-.06-.014c-.137-.022-.271.032-.381.062a.759.759 0 01-.25.039c.046.04.153.107.233.17a.69.69 0 00.385.162c.131.007.24-.04.405-.052h.002z" fill="#4D4D4C"/><path d="M27.988 6.764c-.046-.141-.179-.273-.351-.395a7.124 7.124 0 00-.311-.137.5.5 0 00.19.375.772.772 0 00.31.52l.287.212s-.104-.119-.1-.388v-.029c-.004-.062 0-.096-.021-.16l-.004.002zm.377.79l.251.187s-.093-.143-.038-.368c.035-.145.024-.401-.244-.601a17.062 17.062 0 00-.362-.203s.181.157.15.386a.595.595 0 00.244.6v-.001zm-.961-2.131a.756.756 0 01-.25-.025c.033.05.12.142.182.223a.698.698 0 00.332.255c.125.04.243.023.405.053a.762.762 0 01-.16-.22.82.82 0 01-.069-.22.431.431 0 00-.055-.028c-.126-.057-.27-.04-.384-.038h-.001zm1.11.405a.687.687 0 00-.003.234.77.77 0 00.166.369l.224.277s-.071-.141 0-.402c.002-.009.003-.02.006-.028.013-.062.024-.094.02-.16-.008-.147-.105-.31-.24-.47-.018-.021-.267-.212-.267-.212s.133.157.093.39v.002zm-.105.413a.698.698 0 00-.54-.253h-.022c-.238.03-.378-.135-.378-.135s.154.267.169.287c.08.114.244.267.388.296.064.013.122.006.185.005l.029-.001c.268-.026.39.074.39.074l-.224-.274.003.001zm5.343-2.264c.192.135.209.303.209.303l.074-.302c.067-.312-.072-.502-.22-.599-.195-.126-.173-.289-.173-.289s-.112.268-.118.295a.566.566 0 00.229.592h-.001zm-5.801 3.687c.203-.118.364-.062.364-.062l-.242-.195c-.255-.192-.485-.146-.635-.052-.197.124-.334.035-.334.035s.194.215.216.23a.568.568 0 00.633.044h-.002zm8.205.556l-.11-.053c-.214-.114-.469-.051-.646.102-.023.018-.26.229-.26.229s.181-.085.392.017a.582.582 0 00.582-.049l.02-.013c.178-.119.202-.13.248-.152.037-.017.064-.039.047-.044-.057-.018-.148.013-.273-.035V8.22zm1.482-1.31l-.02-.006a.641.641 0 00-.211-.025.695.695 0 00-.376.133l-.285.208s.144-.066.396.026l.027.01c.06.018.116.039.18.043.146.008.344-.098.451-.187.02-.017.237-.236.237-.236s-.177.123-.399.034zm-1.064.842c-.146-.099-.387-.126-.638.074l-.25.21s.172-.063.377.042a.657.657 0 00.682-.064l.22-.173s-.164.064-.392-.089zm.536-.397c-.151-.094-.382-.14-.636.052l-.241.195s.159-.056.363.062c.13.075.375.142.632-.044.022-.015.217-.23.217-.23s-.137.09-.334-.035h-.002zm1.383-1.475c-.116.015-.265.019-.386.09a.593.593 0 00-.256.288c-.014.022-.026.046-.04.07.006 0 .01-.003.016-.003.146-.022.277.023.378.053a.623.623 0 00.108-.05c.12-.069.178-.143.26-.271.08-.124.127-.164.158-.213-.06 0-.108.02-.239.038l.001-.002zm-.665.535a.81.81 0 00-.06.013.83.83 0 01-.273.33.92.92 0 01-.06.037c.165.012.275.06.405.053a.7.7 0 00.386-.162c.08-.063.187-.131.232-.17a.795.795 0 01-.25-.04c-.11-.03-.244-.083-.38-.061z" fill="#4D4D4C"/><path d="M34.25 9.363c.17-.136.373-.252.579-.242a.904.904 0 00.403-.05c.128-.056.248-.14.248-.14l-.05.01s-.042.008-.113.006a.793.793 0 01-.269-.05c-.158-.06-.333-.117-.497.005l.028-.032a.432.432 0 01.177-.1.55.55 0 00-.01-.34.665.665 0 01.008-.382c.008-.02.01-.029.019-.049a1.07 1.07 0 00-.222.255c-.081.122-.117.281-.136.475-.018.183-.146.342-.283.492l-.878.796c.016.017.03.035.043.056l.04.063.91-.77h.003v-.003zm-4.532-.242c.196-.009.389.096.553.222l.857.785.037-.058a.392.392 0 01.08-.093l-.844-.773c-.132-.146-.251-.3-.27-.478-.019-.192-.053-.351-.135-.474-.054-.081-.097-.15-.222-.255l.018.048s.017.043.028.113c.01.07.01.166-.02.269a.561.561 0 00-.01.341.424.424 0 01.177.1c.012.013.017.02.029.03-.165-.12-.34-.063-.498-.004a.799.799 0 01-.269.05c-.07.002-.113-.006-.113-.006l-.05-.009s.12.084.248.139c.1.043.231.06.404.05v.003z" fill="#4D4D4C"/><path d="M35.721 8.726l.052-.035s-.105-.01-.29-.095a.477.477 0 00-.493.039 1.423 1.423 0 00-.153.128h.001a.432.432 0 01.082 0 .637.637 0 01.203.065c.14.07.336.115.508-.03.01-.009.056-.044.091-.07v-.002zm-6.659-.13a.92.92 0 01-.29.095l.053.035.091.071c.172.145.369.1.508.03a.604.604 0 01.203-.065.434.434 0 01.082 0h.001s-.078-.076-.152-.128a.477.477 0 00-.494-.04l-.002.002zm-.049-.081c.21-.101.39-.017.39-.017l-.258-.23c-.178-.152-.431-.215-.647-.101a1.499 1.499 0 01-.11.053c-.125.049-.214.017-.272.036-.017.005.01.027.047.044.045.022.069.033.248.152l.02.013.014.009a.582.582 0 00.568.04zm-.884-2.648c.038.037.243.198.303.264a.61.61 0 01-.014-.234.613.613 0 00-.037-.376c-.06-.128-.19-.226-.278-.31-.1-.094-.135-.14-.186-.175.003.036-.014.089-.026.23-.014.13.035.276.095.403a.659.659 0 00.143.197v.001zM31.81 3.68c.078.106.184.16.296.281a.757.757 0 01.001-.272.81.81 0 01.074-.218.54.54 0 00-.027-.055c-.07-.12-.197-.19-.288-.256a.757.757 0 01-.188-.169c-.001.062.013.187.016.29a.694.694 0 00.117.4h-.001zm.108.78l.025.015c.233.136.27.29.27.29l-.018-.353a.697.697 0 00-.286-.523l-.018-.012c-.21-.116-.226-.33-.226-.33s-.033.306-.033.332c-.001.14.04.36.14.468.044.048.095.078.148.114l-.002-.002zm.27-.513c.01.052.08.303.09.392a.65.65 0 01.125-.197.611.611 0 00.192-.326c.027-.14-.02-.295-.043-.414-.026-.135-.026-.193-.046-.251-.02.031-.064.064-.156.17-.087.098-.134.244-.16.383a.66.66 0 00-.002.243zm-.244-.847c.087.058.205.13.28.258l.008.015.028-.073a.593.593 0 00.063-.38c-.022-.14-.114-.257-.176-.356-.07-.113-.084-.164-.122-.21-.018.057-.02.118-.065.258-.047.144-.068.237-.046.373.007.04.017.078.03.115zm.037 2.736c.21.093.27.265.27.265l.006-.325c-.004-.322-.177-.49-.346-.541-.263-.08-.317-.248-.317-.248l.005.28a.66.66 0 00.382.569zm-.014-.673c.22.083.277.243.277.243l-.003-.311c-.012-.32-.192-.47-.36-.526-.221-.074-.24-.238-.24-.238s-.043.286-.041.314a.567.567 0 00.367.518zm.812 1.022c-.01.005-.017.01-.028.014-.03.016-.065.033-.107.051-.155.07-.321.233-.329.557 0 .029-.015.294-.015.294s.071-.137.28-.226a.558.558 0 00.322-.448l.002-.016c0-.006 0-.012.002-.017l.002-.025c.021-.225.034-.266.04-.32.006-.042 0-.081-.01-.067-.032.037-.05.135-.158.2l-.001.003zm.651-.885c.18.149.18.348.18.348l.099-.332c.064-.227.013-.483-.18-.63a1.484 1.484 0 01-.096-.076c-.097-.093-.106-.189-.146-.233-.013-.013-.021.02-.021.061 0 .051 0 .077-.033.29l-.004.023a.077.077 0 01-.002.017l-.002.017a.58.58 0 00.207.515h-.002zm-.11.505c.075.06.118.115.144.155a.484.484 0 01.034.075v-.002.002s.036-.104.051-.193a.475.475 0 00-.173-.464.925.925 0 01-.21-.222s-.003.028-.01.063c-.01.042-.022.1-.026.112-.059.219.064.377.188.475l.001-.001zm.282-1.172a.498.498 0 01.196.324s.078-.287.084-.315c.076-.312-.05-.517-.202-.609-.235-.141-.246-.318-.246-.318l-.062.272a.66.66 0 00.23.646zm-4.612-.552a.856.856 0 01.296.313c.01.02.02.042.028.064.032-.162.092-.265.102-.396a.696.696 0 00-.113-.403c-.053-.087-.106-.201-.14-.252a.781.781 0 01-.07.243c-.044.105-.113.231-.108.371 0 .021.003.04.005.062V4.08zm3.532.061l-.016.015a.665.665 0 00-.124.173.784.784 0 00-.084.396l.017.356s.026-.156.237-.323l.022-.02c.046-.042.074-.061.11-.118.08-.124.099-.312.082-.521a8.079 8.079 0 00-.09-.328s.014.205-.156.368l.002.002zm.124 1.395c-.16.073-.324.24-.324.563l.005.328s.057-.174.268-.268c.217-.098.332-.333.325-.566l-.01-.302s-.04.141-.263.245h-.001zm-.393.934c.006-.234-.106-.47-.33-.566a1.984 1.984 0 01-.11-.05c-.118-.068-.15-.156-.2-.19-.016-.01-.015.024-.006.064.012.048.02.074.04.287 0 .008 0 .016.002.024 0 .005 0 .012.002.017a.58.58 0 00.33.464c.21.1.259.293.259.293l.014-.347-.001.004zm-2.401-3.645c.06.129.161.208.267.268a.609.609 0 01.171.161c-.013-.089-.006-.349-.01-.402a.64.64 0 00-.062-.236c-.06-.127-.14-.257-.25-.33-.114-.082-.165-.102-.193-.127-.005.062.01.117.017.255.007.12 0 .283.06.411zm.245-.519l.004-.015c.04-.143.138-.242.207-.32a.617.617 0 00.002-.12c-.012-.14-.055-.223-.136-.351-.079-.124-.094-.183-.127-.234-.026.055-.027.106-.067.232-.035.112-.095.249-.083.389.012.14.069.264.154.354l.046.064v.001zm.073.083c.05.056.091.123.125.193a.709.709 0 01.068.263c.08-.144.169-.224.218-.345a.688.688 0 00.016-.418c-.024-.1-.04-.225-.056-.284a.745.745 0 01-.141.209c-.073.086-.178.186-.217.32a.429.429 0 00-.013.06v.002zm-.691 2.497l.171.308s-.048-.15.076-.39l.012-.025c.024-.058.053-.11.065-.174.026-.144-.055-.353-.13-.471a16.457 16.457 0 00-.206-.264s.1.19-.016.4a.605.605 0 00-.059.225.72.72 0 00.085.39h.002zm.486-1.257c.048.045.08.058.136.087l.026.013c.245.11.308.255.308.255s-.068-.331-.07-.35a.77.77 0 00-.178-.363.66.66 0 00-.163-.137l-.019-.01c-.205-.118-.24-.32-.24-.32s-.012.313-.008.34c.037.207.1.383.21.484l-.002.001zm.587-.917l-.014.015a.618.618 0 00-.111.18.7.7 0 00-.038.398l.068.347s0-.159.19-.348l.02-.021c.042-.047.084-.089.115-.146.07-.129.056-.352.021-.488-.006-.025-.113-.314-.113-.314s.037.212-.138.377zm.617 2.665a.48.48 0 00-.174.464c.016.09.051.193.051.193v-.002.002a.483.483 0 01.034-.075.646.646 0 01.145-.156c.123-.098.247-.256.188-.474a3.131 3.131 0 01-.026-.112l-.01-.063s-.053.093-.21.222l.002.001zm.778 1.234a.956.956 0 01-.257-.163l.005.063c0 .043.003.102.003.115-.004.226.154.349.297.413a.65.65 0 01.18.115c.018.02.036.04.05.064v-.001.001s.01-.109.003-.199a.48.48 0 00-.282-.408h.001zm-1.083-2.579c-.151.092-.278.297-.202.61l.085.314s.016-.181.196-.324a.659.659 0 00.23-.646 31.94 31.94 0 00-.063-.272s-.01.176-.245.318zm.153.654c-.193.146-.244.404-.18.629l.098.332s0-.2.18-.348a.584.584 0 00.207-.515c0-.005 0-.01-.002-.017a.067.067 0 00-.002-.017c0-.008-.003-.016-.004-.024-.033-.212-.033-.238-.033-.289 0-.04-.008-.074-.02-.061-.041.044-.05.14-.147.233a2.196 2.196 0 01-.096.077zm-.286-1.307c-.149.096-.287.286-.22.598l.074.302s.017-.168.209-.303a.57.57 0 00.229-.592 6.221 6.221 0 00-.118-.295s.022.163-.172.29h-.002z" fill="#4D4D4C"/><path d="M31.256 5.901c-.12.118-.245.253-.205.454l-.017-.04a.427.427 0 01-.016-.202.55.55 0 00-.313-.136.648.648 0 01-.342-.169l-.035-.036c.044.158.087.226.138.308.076.126.206.224.372.323.213.127.303.415.404.657.1.294.205.587.313.878.124.352.244.654.374.977.03.078.062.158.096.24-.015.12-.032.242-.05.364a1.52 1.52 0 00-.01.215V9.9c.122.007.242.008.362.007l.004-.022.009.022a3.81 3.81 0 00.211-.008l-.15-.363a3.229 3.229 0 01.07-.258l.29-.728.007-.021c.075-.19.148-.382.22-.591.11-.292.215-.584.314-.878.1-.242.192-.53.404-.657.166-.1.296-.197.372-.323.05-.083.094-.15.138-.308l-.035.036s-.031.033-.09.072a.646.646 0 01-.252.097.553.553 0 00-.313.136.44.44 0 01-.016.203l-.017.039c.04-.2-.085-.336-.205-.454a.79.79 0 01-.16-.223.648.648 0 01-.041-.106l-.013-.049s-.025.146-.021.284a.918.918 0 00.124.387c.123.234.057.55-.025.798-.24.695-.576 1.5-.876 2.21l-.005.019v-.003l-.004-.016-.056-.134c.028-.27.055-.538.077-.807.039-.259.056-.56.23-.735.137-.137.239-.264.282-.404.028-.093.053-.168.057-.333-.01.018-.016.026-.025.044 0 0-.022.04-.07.092a.66.66 0 01-.221.155.552.552 0 00-.27.21.43.43 0 01.035.2l-.007.041c-.01-.203-.164-.304-.31-.388a.778.778 0 01-.21-.176.629.629 0 01-.066-.093l-.023-.045s.011.147.05.28a.92.92 0 00.215.345c.176.196.19.52.172.78-.014.164-.031.335-.05.51a31.167 31.167 0 01-.684-1.751c-.08-.247-.147-.564-.025-.798a.919.919 0 00.124-.387c.004-.138-.02-.283-.02-.283l-.014.048s-.01.043-.041.106a.835.835 0 01-.16.224V5.9z" fill="#4D4D4C"/><path d="M32.86 9.868a.483.483 0 01.115 0l.29-.466a.18.18 0 01.03-.006c.52-.085.701-.481.701-.481-.273.183-.488.147-.488.147a.437.437 0 00-.273.09V9.15a.058.058 0 01-.01.008c-.014.012-.027.022-.039.035l-.011.012a.694.694 0 00-.042.05.45.45 0 01.115-.177.28.28 0 00-.067-.233c-.218-.231-.209-.5-.209-.5s-.201.342-.05.757c.028.08.049.143.064.197l-.283.583.153-.016.004.002zm-1.437 3.712l.423-2.937-.196-.633-1.473 3.299c.594.214 1.244.27 1.244.27h.002zm-.643-2.659c.082.023.163.043.245.063l.195-.433c-.06-.011-.12-.022-.178-.036l-.26.406h-.001zm-.194.556c.063.02.126.038.19.055h.002l.191-.424a6.976 6.976 0 01-.264-.068l-.252.395.052.017c.028.01.055.017.082.025zm-.479 2.003l-.503 1.116c.224.081.459.157.717.221l.344-1.19a7.491 7.491 0 01-.558-.147zm.296-1.92l-1.71 2.673.266.108c.155.064.31.127.468.189l1.294-2.874a9.73 9.73 0 01-.316-.095h-.002zm1.827-1.036c.37 0 .741-.048 1.114-.13l-.16-.25a.316.316 0 00-.305-.142 4.71 4.71 0 01-1.05.025l.159.49c.08.003.162.007.242.007zm-.769-.511a.305.305 0 00-.183.13l-.159.249c.052.012.105.02.157.031l.185-.412v.002zm2.221.907l-.262-.406a5.303 5.303 0 01-1.191.145c-.07 0-.142-.004-.213-.007l-.065.475c.093.005.185.009.278.009.48 0 .965-.081 1.452-.216zm-.42.852l.884 3.071c.264-.06.502-.132.727-.21l-1.319-2.928a6.278 6.278 0 01-.292.066v.001zm.479-.116l1.311 2.913c.195-.072.381-.15.57-.228l.172-.07-1.737-2.712a7.44 7.44 0 01-.316.096v.001zm-.947.192l.443 3.14a7.62 7.62 0 00.724-.104l-.886-3.075a7.31 7.31 0 01-.28.04zm-1.38 3.146c.22.02.461.03.721.034V11.88a5.15 5.15 0 01-.28-.014l-.442 3.127h.001zm-.908-.134c.219.047.456.087.72.115l.173-1.223a7.003 7.003 0 01-.548-.085l-.345 1.195v-.002zm2.049-3.124c.066-.005.13-.01.197-.019l.066-.007c.175-.023.35-.053.525-.092l.058-.013.207-.05.076-.022c.065-.018.129-.036.194-.056l.077-.024a.505.505 0 00.055-.018l-.253-.395a5.618 5.618 0 01-1.527.232 4.91 4.91 0 01-.297-.01l-.066.47c.013 0 .025.003.038.004l.072.005a4.12 4.12 0 00.577-.005h.001zm-.229.144v3.149c.26 0 .5-.01.722-.026l-.443-3.136a4.026 4.026 0 01-.28.014z" fill="#4D4D4C"/></svg>